Benzinova Extended-B1.ufo
<glyph name="dollar" format="1">
  <advance width="616.0"/>
  <unicode hex="0024"/>
  <outline>
    <contour>
      <point x="308" y="692" type="curve" smooth="yes"/>
      <point x="200" y="692"/>
      <point x="112" y="780"/>
      <point x="112" y="888" type="curve" smooth="yes"/>
      <point x="112" y="924" type="line" smooth="yes"/>
      <point x="112" y="1032"/>
      <point x="200" y="1120"/>
      <point x="308" y="1120" type="curve" smooth="yes"/>
      <point x="416" y="1120"/>
      <point x="504" y="1032"/>
      <point x="504" y="924" type="curve" smooth="yes"/>
      <point x="504" y="916"/>
      <point x="512" y="908"/>
      <point x="520" y="908" type="curve" smooth="yes"/>
      <point x="528" y="908"/>
      <point x="536" y="916"/>
      <point x="536" y="924" type="curve" smooth="yes"/>
      <point x="536" y="1044"/>
      <point x="442" y="1144"/>
      <point x="324" y="1152" type="curve"/>
      <point x="324" y="1216" type="line" smooth="yes"/>
      <point x="324" y="1224"/>
      <point x="316" y="1232"/>
      <point x="308" y="1232" type="curve" smooth="yes"/>
      <point x="300" y="1232"/>
      <point x="292" y="1224"/>
      <point x="292" y="1216" type="curve" smooth="yes"/>
      <point x="292" y="1152" type="line"/>
      <point x="174" y="1144"/>
      <point x="80" y="1044"/>
      <point x="80" y="924" type="curve" smooth="yes"/>
      <point x="80" y="888" type="line" smooth="yes"/>
      <point x="80" y="764"/>
      <point x="182" y="660"/>
      <point x="308" y="660" type="curve" smooth="yes"/>
      <point x="416" y="660"/>
      <point x="504" y="574"/>
      <point x="504" y="464" type="curve" smooth="yes"/>
      <point x="504" y="316" type="line" smooth="yes"/>
      <point x="504" y="208"/>
      <point x="416" y="120"/>
      <point x="308" y="120" type="curve" smooth="yes"/>
      <point x="200" y="120"/>
      <point x="112" y="208"/>
      <point x="112" y="316" type="curve" smooth="yes"/>
      <point x="112" y="324"/>
      <point x="104" y="332"/>
      <point x="96" y="332" type="curve" smooth="yes"/>
      <point x="88" y="332"/>
      <point x="80" y="324"/>
      <point x="80" y="316" type="curve" smooth="yes"/>
      <point x="80" y="196"/>
      <point x="174" y="96"/>
      <point x="292" y="88" type="curve"/>
      <point x="292" y="-16" type="line" smooth="yes"/>
      <point x="292" y="-24"/>
      <point x="300" y="-32"/>
      <point x="308" y="-32" type="curve" smooth="yes"/>
      <point x="316" y="-32"/>
      <point x="324" y="-24"/>
      <point x="324" y="-16" type="curve" smooth="yes"/>
      <point x="324" y="88" type="line"/>
      <point x="442" y="96"/>
      <point x="536" y="196"/>
      <point x="536" y="316" type="curve" smooth="yes"/>
      <point x="536" y="464" type="line" smooth="yes"/>
      <point x="536" y="590"/>
      <point x="434" y="692"/>
    </contour>
  </outline>
</glyph>
<glyph name="asterisk" format="1">
  <advance width="366.0"/>
  <unicode hex="002A"/>
  <outline>
    <contour>
      <point x="276" y="1080" type="curve"/>
      <point x="214" y="1116" type="line"/>
      <point x="276" y="1152" type="line" smooth="yes"/>
      <point x="282" y="1154"/>
      <point x="284" y="1160"/>
      <point x="284" y="1166" type="curve" smooth="yes"/>
      <point x="284" y="1176"/>
      <point x="276" y="1182"/>
      <point x="268" y="1182" type="curve" smooth="yes"/>
      <point x="266" y="1182"/>
      <point x="262" y="1182"/>
      <point x="260" y="1180" type="curve" smooth="yes"/>
      <point x="198" y="1144" type="line"/>
      <point x="198" y="1216" type="line" smooth="yes"/>
      <point x="198" y="1224"/>
      <point x="190" y="1232"/>
      <point x="182" y="1232" type="curve" smooth="yes"/>
      <point x="174" y="1232"/>
      <point x="166" y="1224"/>
      <point x="166" y="1216" type="curve" smooth="yes"/>
      <point x="166" y="1144" type="line"/>
      <point x="104" y="1180" type="line" smooth="yes"/>
      <point x="102" y="1182"/>
      <point x="98" y="1182"/>
      <point x="96" y="1182" type="curve" smooth="yes"/>
      <point x="86" y="1182"/>
      <point x="80" y="1176"/>
      <point x="80" y="1166" type="curve" smooth="yes"/>
      <point x="80" y="1160"/>
      <point x="82" y="1154"/>
      <point x="88" y="1152" type="curve" smooth="yes"/>
      <point x="150" y="1116" type="line"/>
      <point x="88" y="1080" type="line" smooth="yes"/>
      <point x="82" y="1078"/>
      <point x="80" y="1072"/>
      <point x="80" y="1066" type="curve" smooth="yes"/>
      <point x="80" y="1056"/>
      <point x="86" y="1050"/>
      <point x="96" y="1050" type="curve" smooth="yes"/>
      <point x="98" y="1050"/>
      <point x="100" y="1050"/>
      <point x="104" y="1052" type="curve" smooth="yes"/>
      <point x="166" y="1088" type="line"/>
      <point x="166" y="1016" type="line" smooth="yes"/>
      <point x="166" y="1008"/>
      <point x="174" y="1000"/>
      <point x="182" y="1000" type="curve" smooth="yes"/>
      <point x="190" y="1000"/>
      <point x="198" y="1008"/>
      <point x="198" y="1016" type="curve" smooth="yes"/>
      <point x="198" y="1088" type="line"/>
      <point x="260" y="1052" type="line" smooth="yes"/>
      <point x="264" y="1050"/>
      <point x="266" y="1050"/>
      <point x="268" y="1050" type="curve" smooth="yes"/>
      <point x="276" y="1050"/>
      <point x="284" y="1056"/>
      <point x="284" y="1066" type="curve" smooth="yes"/>
      <point x="284" y="1072"/>
      <point x="282" y="1078"/>
    </contour>
  </outline>
</glyph>
<glyph name="hyphen" format="1">
  <advance width="404.0"/>
  <unicode hex="002D"/>
  <outline>
    <contour>
      <point x="308" y="410" type="line"/>
      <point x="316" y="410"/>
      <point x="324" y="418"/>
      <point x="324" y="426" type="curve" smooth="yes"/>
      <point x="324" y="436"/>
      <point x="316" y="442"/>
      <point x="308" y="442" type="curve" smooth="yes"/>
      <point x="96" y="442" type="line" smooth="yes"/>
      <point x="88" y="442"/>
      <point x="80" y="436"/>
      <point x="80" y="426" type="curve" smooth="yes"/>
      <point x="80" y="418"/>
      <point x="88" y="410"/>
      <point x="96" y="410" type="curve" smooth="yes"/>
    </contour>
  </outline>
</glyph>
<glyph name="three" format="1">
  <advance width="616.0"/>
  <unicode hex="0033"/>
  <outline>
    <contour>
      <point x="308" y="-32" type="curve" smooth="yes"/>
      <point x="434" y="-32"/>
      <point x="536" y="70"/>
      <point x="536" y="196" type="curve" smooth="yes"/>
      <point x="536" y="486" type="line" smooth="yes"/>
      <point x="536" y="582"/>
      <point x="476" y="664"/>
      <point x="392" y="698" type="curve"/>
      <point x="476" y="730"/>
      <point x="536" y="812"/>
      <point x="536" y="910" type="curve" smooth="yes"/>
      <point x="536" y="1004" type="line" smooth="yes"/>
      <point x="536" y="1130"/>
      <point x="434" y="1232"/>
      <point x="308" y="1232" type="curve" smooth="yes"/>
      <point x="182" y="1232"/>
      <point x="80" y="1130"/>
      <point x="80" y="1004" type="curve" smooth="yes"/>
      <point x="80" y="996"/>
      <point x="88" y="988"/>
      <point x="96" y="988" type="curve" smooth="yes"/>
      <point x="104" y="988"/>
      <point x="112" y="996"/>
      <point x="112" y="1004" type="curve" smooth="yes"/>
      <point x="112" y="1112"/>
      <point x="200" y="1200"/>
      <point x="308" y="1200" type="curve" smooth="yes"/>
      <point x="416" y="1200"/>
      <point x="504" y="1112"/>
      <point x="504" y="1004" type="curve" smooth="yes"/>
      <point x="504" y="910" type="line" smooth="yes"/>
      <point x="504" y="800"/>
      <point x="418" y="714"/>
      <point x="308" y="714" type="curve" smooth="yes"/>
      <point x="300" y="714"/>
      <point x="292" y="706"/>
      <point x="292" y="698" type="curve" smooth="yes"/>
      <point x="292" y="688"/>
      <point x="300" y="682"/>
      <point x="308" y="682" type="curve" smooth="yes"/>
      <point x="416" y="682"/>
      <point x="504" y="594"/>
      <point x="504" y="486" type="curve" smooth="yes"/>
      <point x="504" y="196" type="line" smooth="yes"/>
      <point x="504" y="88"/>
      <point x="416" y="0"/>
      <point x="308" y="0" type="curve" smooth="yes"/>
      <point x="200" y="0"/>
      <point x="112" y="88"/>
      <point x="112" y="196" type="curve" smooth="yes"/>
      <point x="112" y="204"/>
      <point x="104" y="212"/>
      <point x="96" y="212" type="curve" smooth="yes"/>
      <point x="88" y="212"/>
      <point x="80" y="204"/>
      <point x="80" y="196" type="curve" smooth="yes"/>
      <point x="80" y="70"/>
      <point x="182" y="-32"/>
    </contour>
  </outline>
</glyph>
<glyph name="five" format="1">
  <advance width="616.0"/>
  <unicode hex="0035"/>
  <outline>
    <contour>
      <point x="308" y="-32" type="curve" smooth="yes"/>
      <point x="434" y="-32"/>
      <point x="536" y="70"/>
      <point x="536" y="196" type="curve" smooth="yes"/>
      <point x="536" y="486" type="line" smooth="yes"/>
      <point x="536" y="610"/>
      <point x="434" y="714"/>
      <point x="308" y="714" type="curve" smooth="yes"/>
      <point x="112" y="714" type="line"/>
      <point x="112" y="1168" type="line"/>
      <point x="520" y="1168" type="line" smooth="yes"/>
      <point x="528" y="1168"/>
      <point x="536" y="1176"/>
      <point x="536" y="1184" type="curve" smooth="yes"/>
      <point x="536" y="1192"/>
      <point x="528" y="1200"/>
      <point x="520" y="1200" type="curve" smooth="yes"/>
      <point x="96" y="1200" type="line" smooth="yes"/>
      <point x="88" y="1200"/>
      <point x="80" y="1192"/>
      <point x="80" y="1184" type="curve" smooth="yes"/>
      <point x="80" y="698" type="line" smooth="yes"/>
      <point x="80" y="688"/>
      <point x="88" y="682"/>
      <point x="96" y="682" type="curve" smooth="yes"/>
      <point x="308" y="682" type="line" smooth="yes"/>
      <point x="416" y="682"/>
      <point x="504" y="594"/>
      <point x="504" y="486" type="curve" smooth="yes"/>
      <point x="504" y="196" type="line" smooth="yes"/>
      <point x="504" y="88"/>
      <point x="416" y="0"/>
      <point x="308" y="0" type="curve" smooth="yes"/>
      <point x="200" y="0"/>
      <point x="112" y="88"/>
      <point x="112" y="196" type="curve" smooth="yes"/>
      <point x="112" y="204"/>
      <point x="104" y="212"/>
      <point x="96" y="212" type="curve" smooth="yes"/>
      <point x="88" y="212"/>
      <point x="80" y="204"/>
      <point x="80" y="196" type="curve" smooth="yes"/>
      <point x="80" y="70"/>
      <point x="182" y="-32"/>
    </contour>
  </outline>
</glyph>
<glyph name="six" format="1">
  <advance width="616.0"/>
  <unicode hex="0036"/>
  <outline>
    <contour>
      <point x="308" y="744" type="curve" smooth="yes"/>
      <point x="224" y="744"/>
      <point x="152" y="700"/>
      <point x="112" y="632" type="curve"/>
      <point x="112" y="1004" type="line" smooth="yes"/>
      <point x="112" y="1112"/>
      <point x="200" y="1200"/>
      <point x="308" y="1200" type="curve" smooth="yes"/>
      <point x="416" y="1200"/>
      <point x="504" y="1112"/>
      <point x="504" y="1004" type="curve" smooth="yes"/>
      <point x="504" y="996"/>
      <point x="512" y="988"/>
      <point x="520" y="988" type="curve" smooth="yes"/>
      <point x="528" y="988"/>
      <point x="536" y="996"/>
      <point x="536" y="1004" type="curve" smooth="yes"/>
      <point x="536" y="1130"/>
      <point x="434" y="1232"/>
      <point x="308" y="1232" type="curve" smooth="yes"/>
      <point x="182" y="1232"/>
      <point x="80" y="1130"/>
      <point x="80" y="1004" type="curve" smooth="yes"/>
      <point x="80" y="196" type="line" smooth="yes"/>
      <point x="80" y="70"/>
      <point x="182" y="-32"/>
      <point x="308" y="-32" type="curve" smooth="yes"/>
      <point x="434" y="-32"/>
      <point x="536" y="70"/>
      <point x="536" y="196" type="curve" smooth="yes"/>
      <point x="536" y="516" type="line" smooth="yes"/>
      <point x="536" y="642"/>
      <point x="434" y="744"/>
    </contour>
    <contour>
      <point x="504" y="196" type="line"/>
      <point x="504" y="88"/>
      <point x="416" y="0"/>
      <point x="308" y="0" type="curve" smooth="yes"/>
      <point x="200" y="0"/>
      <point x="112" y="88"/>
      <point x="112" y="196" type="curve" smooth="yes"/>
      <point x="112" y="516" type="line" smooth="yes"/>
      <point x="112" y="624"/>
      <point x="200" y="712"/>
      <point x="308" y="712" type="curve" smooth="yes"/>
      <point x="416" y="712"/>
      <point x="504" y="624"/>
      <point x="504" y="516" type="curve" smooth="yes"/>
    </contour>
  </outline>
</glyph>
<glyph name="seven" format="1">
  <advance width="616.0"/>
  <unicode hex="0037"/>
  <outline>
    <contour>
      <point x="308" y="0" type="curve" smooth="yes"/>
      <point x="316" y="0"/>
      <point x="322" y="6"/>
      <point x="324" y="14" type="curve" smooth="yes"/>
      <point x="536" y="1182" type="line"/>
      <point x="536" y="1190"/>
      <point x="530" y="1200"/>
      <point x="520" y="1200" type="curve" smooth="yes"/>
      <point x="96" y="1200" type="line" smooth="yes"/>
      <point x="88" y="1200"/>
      <point x="80" y="1192"/>
      <point x="80" y="1184" type="curve" smooth="yes"/>
      <point x="80" y="1176"/>
      <point x="88" y="1168"/>
      <point x="96" y="1168" type="curve" smooth="yes"/>
      <point x="500" y="1168" type="line"/>
      <point x="292" y="18" type="line"/>
      <point x="292" y="16"/>
      <point x="292" y="16"/>
      <point x="292" y="14" type="curve" smooth="yes"/>
      <point x="292" y="8"/>
      <point x="298" y="0"/>
    </contour>
  </outline>
</glyph>
<glyph name="eight" format="1">
  <advance width="616.0"/>
  <unicode hex="0038"/>
  <outline>
    <contour>
      <point x="536" y="900" type="curve"/>
      <point x="536" y="1004" type="line" smooth="yes"/>
      <point x="536" y="1130"/>
      <point x="434" y="1232"/>
      <point x="308" y="1232" type="curve" smooth="yes"/>
      <point x="182" y="1232"/>
      <point x="80" y="1130"/>
      <point x="80" y="1004" type="curve" smooth="yes"/>
      <point x="80" y="900" type="line" smooth="yes"/>
      <point x="80" y="804"/>
      <point x="140" y="722"/>
      <point x="224" y="688" type="curve"/>
      <point x="140" y="654"/>
      <point x="80" y="572"/>
      <point x="80" y="476" type="curve" smooth="yes"/>
      <point x="80" y="196" type="line" smooth="yes"/>
      <point x="80" y="70"/>
      <point x="182" y="-32"/>
      <point x="308" y="-32" type="curve" smooth="yes"/>
      <point x="434" y="-32"/>
      <point x="536" y="70"/>
      <point x="536" y="196" type="curve" smooth="yes"/>
      <point x="536" y="476" type="line" smooth="yes"/>
      <point x="536" y="572"/>
      <point x="476" y="654"/>
      <point x="392" y="688" type="curve"/>
      <point x="476" y="722"/>
      <point x="536" y="804"/>
    </contour>
    <contour>
      <point x="504" y="476" type="curve"/>
      <point x="504" y="196" type="line" smooth="yes"/>
      <point x="504" y="88"/>
      <point x="416" y="0"/>
      <point x="308" y="0" type="curve" smooth="yes"/>
      <point x="200" y="0"/>
      <point x="112" y="88"/>
      <point x="112" y="196" type="curve" smooth="yes"/>
      <point x="112" y="476" type="line" smooth="yes"/>
      <point x="112" y="584"/>
      <point x="200" y="672"/>
      <point x="308" y="672" type="curve" smooth="yes"/>
      <point x="416" y="672"/>
      <point x="504" y="584"/>
    </contour>
    <contour>
      <point x="308" y="704" type="curve" smooth="yes"/>
      <point x="200" y="704"/>
      <point x="112" y="792"/>
      <point x="112" y="900" type="curve" smooth="yes"/>
      <point x="112" y="1004" type="line" smooth="yes"/>
      <point x="112" y="1112"/>
      <point x="200" y="1200"/>
      <point x="308" y="1200" type="curve" smooth="yes"/>
      <point x="416" y="1200"/>
      <point x="504" y="1112"/>
      <point x="504" y="1004" type="curve" smooth="yes"/>
      <point x="504" y="900" type="line" smooth="yes"/>
      <point x="504" y="792"/>
      <point x="416" y="704"/>
    </contour>
  </outline>
</glyph>
<glyph name="equal" format="1">
  <advance width="616.0"/>
  <unicode hex="003D"/>
  <outline>
    <contour>
      <point x="520" y="286" type="line"/>
      <point x="528" y="286"/>
      <point x="536" y="294"/>
      <point x="536" y="302" type="curve" smooth="yes"/>
      <point x="536" y="310"/>
      <point x="528" y="318"/>
      <point x="520" y="318" type="curve" smooth="yes"/>
      <point x="96" y="318" type="line" smooth="yes"/>
      <point x="88" y="318"/>
      <point x="80" y="310"/>
      <point x="80" y="302" type="curve" smooth="yes"/>
      <point x="80" y="294"/>
      <point x="88" y="286"/>
      <point x="96" y="286" type="curve" smooth="yes"/>
    </contour>
    <contour>
      <point x="520" y="526" type="line"/>
      <point x="528" y="526"/>
      <point x="536" y="534"/>
      <point x="536" y="542" type="curve" smooth="yes"/>
      <point x="536" y="550"/>
      <point x="528" y="558"/>
      <point x="520" y="558" type="curve" smooth="yes"/>
      <point x="96" y="558" type="line" smooth="yes"/>
      <point x="88" y="558"/>
      <point x="80" y="550"/>
      <point x="80" y="542" type="curve" smooth="yes"/>
      <point x="80" y="534"/>
      <point x="88" y="526"/>
      <point x="96" y="526" type="curve" smooth="yes"/>
    </contour>
  </outline>
</glyph>
<glyph name="greater" format="1">
  <advance width="616.0"/>
  <unicode hex="003E"/>
  <outline>
    <contour>
      <point x="98" y="-14" type="curve" smooth="yes"/>
      <point x="102" y="-14"/>
      <point x="106" y="-12"/>
      <point x="110" y="-10" type="curve" smooth="yes"/>
      <point x="534" y="414" type="line" smooth="yes"/>
      <point x="536" y="416"/>
      <point x="538" y="420"/>
      <point x="538" y="424" type="curve" smooth="yes"/>
      <point x="538" y="428"/>
      <point x="536" y="434"/>
      <point x="534" y="438" type="curve" smooth="yes"/>
      <point x="112" y="860" type="line" smooth="yes"/>
      <point x="108" y="862"/>
      <point x="102" y="864"/>
      <point x="98" y="864" type="curve" smooth="yes"/>
      <point x="88" y="864"/>
      <point x="84" y="856"/>
      <point x="84" y="846" type="curve" smooth="yes"/>
      <point x="84" y="842"/>
      <point x="85" y="839"/>
      <point x="88" y="836" type="curve" smooth="yes"/>
      <point x="500" y="426" type="line"/>
      <point x="86" y="14" type="line" smooth="yes"/>
      <point x="82" y="10"/>
      <point x="82" y="4"/>
      <point x="82" y="0" type="curve" smooth="yes"/>
      <point x="82" y="-8"/>
      <point x="90" y="-14"/>
    </contour>
  </outline>
</glyph>
<glyph name="C" format="1">
  <advance width="864"/>
  <unicode hex="0043"/>
  <outline>
    <contour>
      <point x="572" y="320" type="curve" smooth="yes"/>
      <point x="657" y="318"/>
      <point x="727" y="385"/>
      <point x="730" y="470" type="curve" smooth="yes"/>
      <point x="732" y="478"/>
      <point x="727" y="486"/>
      <point x="720" y="489" type="curve" smooth="yes"/>
      <point x="678" y="529"/>
      <point x="620" y="548"/>
      <point x="561" y="543" type="curve" smooth="yes"/>
      <point x="450" y="472"/>
      <point x="302" y="323"/>
      <point x="230" y="212" type="curve" smooth="yes"/>
      <point x="159" y="212"/>
      <point x="101" y="249"/>
      <point x="101" y="320" type="curve" smooth="yes"/>
      <point x="101" y="209"/>
      <point x="192" y="652"/>
      <point x="303" y="652" type="curve" smooth="yes"/>
      <point x="361" y="723"/>
      <point x="472" y="806"/>
      <point x="580" y="846" type="curve" smooth="yes"/>
      <point x="653" y="848"/>
      <point x="711" y="794"/>
      <point x="709" y="725" type="curve" smooth="yes"/>
      <point x="707" y="721"/>
      <point x="709" y="716"/>
      <point x="712" y="714" type="curve" smooth="yes"/>
      <point x="682" y="676"/>
      <point x="638" y="657"/>
      <point x="583" y="663" type="curve" smooth="yes"/>
      <point x="478" y="746"/>
      <point x="325" y="899"/>
      <point x="241" y="1004" type="curve" smooth="yes"/>
      <point x="158" y="1004"/>
      <point x="91" y="958"/>
      <point x="91" y="875" type="curve" smooth="yes"/>
      <point x="91" y="980"/>
      <point x="177" y="532"/>
      <point x="282" y="532" type="curve" smooth="yes"/>
      <point x="336" y="449"/>
      <point x="454" y="358"/>
    </contour>
  </outline>
</glyph>
<glyph name="D" format="1">
  <advance width="616.0"/>
  <unicode hex="0044"/>
  <outline>
    <contour>
      <point x="308" y="0" type="line"/>
      <point x="434" y="0"/>
      <point x="536" y="102"/>
      <point x="536" y="228" type="curve" smooth="yes"/>
      <point x="536" y="972" type="line" smooth="yes"/>
      <point x="536" y="1098"/>
      <point x="434" y="1200"/>
      <point x="308" y="1200" type="curve" smooth="yes"/>
      <point x="96" y="1200" type="line" smooth="yes"/>
      <point x="88" y="1200"/>
      <point x="80" y="1192"/>
      <point x="80" y="1184" type="curve" smooth="yes"/>
      <point x="80" y="16" type="line" smooth="yes"/>
      <point x="80" y="8"/>
      <point x="88" y="0"/>
      <point x="96" y="0" type="curve" smooth="yes"/>
    </contour>
    <contour>
      <point x="112" y="32" type="line"/>
      <point x="112" y="1168" type="line"/>
      <point x="308" y="1168" type="line" smooth="yes"/>
      <point x="416" y="1168"/>
      <point x="504" y="1080"/>
      <point x="504" y="972" type="curve" smooth="yes"/>
      <point x="504" y="228" type="line" smooth="yes"/>
      <point x="504" y="120"/>
      <point x="416" y="32"/>
      <point x="308" y="32" type="curve" smooth="yes"/>
    </contour>
  </outline>
</glyph>
<glyph name="E" format="1">
  <advance width="874"/>
  <unicode hex="0045"/>
  <outline>
    <contour>
      <point x="778" y="0" type="line"/>
      <point x="787" y="0"/>
      <point x="794" y="7"/>
      <point x="794" y="16" type="curve" smooth="yes"/>
      <point x="794" y="25"/>
      <point x="787" y="32"/>
      <point x="778" y="32" type="curve" smooth="yes"/>
      <point x="96" y="32" type="line"/>
      <point x="112" y="16" type="line"/>
      <point x="112" y="1184" type="line"/>
      <point x="96" y="1168" type="line"/>
      <point x="778" y="1168" type="line" smooth="yes"/>
      <point x="787" y="1168"/>
      <point x="794" y="1175"/>
      <point x="794" y="1184" type="curve" smooth="yes"/>
      <point x="794" y="1193"/>
      <point x="787" y="1200"/>
      <point x="778" y="1200" type="curve" smooth="yes"/>
      <point x="96" y="1200" type="line" smooth="yes"/>
      <point x="87" y="1200"/>
      <point x="80" y="1193"/>
      <point x="80" y="1184" type="curve" smooth="yes"/>
      <point x="80" y="16" type="line" smooth="yes"/>
      <point x="80" y="7"/>
      <point x="87" y="0"/>
      <point x="96" y="0" type="curve" smooth="yes"/>
    </contour>
    <contour>
      <point x="98" y="563" type="line"/>
      <point x="89" y="563"/>
      <point x="82" y="556"/>
      <point x="82" y="547" type="curve" smooth="yes"/>
      <point x="82" y="538"/>
      <point x="89" y="531"/>
      <point x="98" y="531" type="curve" smooth="yes"/>
      <point x="437" y="531" type="line" smooth="yes"/>
      <point x="446" y="531"/>
      <point x="453" y="538"/>
      <point x="453" y="547" type="curve" smooth="yes"/>
      <point x="453" y="556"/>
      <point x="446" y="563"/>
      <point x="437" y="563" type="curve" smooth="yes"/>
    </contour>
  </outline>
</glyph>
<glyph name="H" format="1">
  <advance width="869"/>
  <unicode hex="0048"/>
  <outline>
    <contour>
      <point x="80" y="16" type="line"/>
      <point x="80" y="7"/>
      <point x="87" y="0"/>
      <point x="96" y="0" type="curve" smooth="yes"/>
      <point x="105" y="0"/>
      <point x="112" y="7"/>
      <point x="112" y="16" type="curve" smooth="yes"/>
      <point x="112" y="1184" type="line" smooth="yes"/>
      <point x="112" y="1193"/>
      <point x="105" y="1200"/>
      <point x="96" y="1200" type="curve" smooth="yes"/>
      <point x="87" y="1200"/>
      <point x="80" y="1193"/>
      <point x="80" y="1184" type="curve" smooth="yes"/>
    </contour>
    <contour>
      <point x="752" y="16" type="line"/>
      <point x="752" y="7"/>
      <point x="759" y="0"/>
      <point x="768" y="0" type="curve" smooth="yes"/>
      <point x="777" y="0"/>
      <point x="784" y="7"/>
      <point x="784" y="16" type="curve" smooth="yes"/>
      <point x="784" y="1184" type="line" smooth="yes"/>
      <point x="784" y="1193"/>
      <point x="777" y="1200"/>
      <point x="768" y="1200" type="curve" smooth="yes"/>
      <point x="759" y="1200"/>
      <point x="752" y="1193"/>
      <point x="752" y="1184" type="curve" smooth="yes"/>
    </contour>
    <contour>
      <point x="97" y="563" type="line"/>
      <point x="88" y="563"/>
      <point x="81" y="556"/>
      <point x="81" y="547" type="curve" smooth="yes"/>
      <point x="81" y="538"/>
      <point x="88" y="531"/>
      <point x="97" y="531" type="curve" smooth="yes"/>
      <point x="768" y="531" type="line" smooth="yes"/>
      <point x="777" y="531"/>
      <point x="784" y="538"/>
      <point x="784" y="547" type="curve" smooth="yes"/>
      <point x="784" y="556"/>
      <point x="777" y="563"/>
      <point x="768" y="563" type="curve" smooth="yes"/>
    </contour>
  </outline>
</glyph>
<glyph name="L" format="1">
  <advance width="616.0"/>
  <unicode hex="004C"/>
  <outline>
    <contour>
      <point x="520" y="0" type="line"/>
      <point x="528" y="0"/>
      <point x="536" y="8"/>
      <point x="536" y="16" type="curve" smooth="yes"/>
      <point x="536" y="24"/>
      <point x="528" y="32"/>
      <point x="520" y="32" type="curve" smooth="yes"/>
      <point x="112" y="32" type="line"/>
      <point x="112" y="1184" type="line" smooth="yes"/>
      <point x="112" y="1192"/>
      <point x="104" y="1200"/>
      <point x="96" y="1200" type="curve" smooth="yes"/>
      <point x="88" y="1200"/>
      <point x="80" y="1192"/>
      <point x="80" y="1184" type="curve" smooth="yes"/>
      <point x="80" y="16" type="line" smooth="yes"/>
      <point x="80" y="8"/>
      <point x="88" y="0"/>
      <point x="96" y="0" type="curve" smooth="yes"/>
    </contour>
  </outline>
</glyph>
<glyph name="M" format="1">
  <advance width="864"/>
  <unicode hex="004D"/>
  <outline>
    <contour>
      <point x="91" y="5" type="curve" smooth="yes"/>
      <point x="96" y="2"/>
      <point x="104" y="5"/>
      <point x="107" y="11" type="curve" smooth="yes"/>
      <point x="110" y="11"/>
      <point x="112" y="738"/>
      <point x="112" y="741" type="curve"/>
      <point x="231" y="836" type="line"/>
      <point x="233" y="832"/>
      <point x="228" y="824"/>
      <point x="232" y="824" type="curve" smooth="yes"/>
      <point x="236" y="824"/>
      <point x="436" y="632"/>
      <point x="437" y="636" type="curve" smooth="yes"/>
      <point x="439" y="634"/>
      <point x="563" y="941"/>
      <point x="565" y="944" type="curve"/>
      <point x="761" y="415" type="line" smooth="yes"/>
      <point x="761" y="410"/>
      <point x="757" y="408"/>
      <point x="762" y="408" type="curve" smooth="yes"/>
      <point x="767" y="408"/>
      <point x="773" y="11"/>
      <point x="773" y="16" type="curve" smooth="yes"/>
      <point x="773" y="13"/>
      <point x="775" y="792"/>
      <point x="778" y="792" type="curve" smooth="yes"/>
      <point x="781" y="797"/>
      <point x="778" y="805"/>
      <point x="773" y="808" type="curve" smooth="yes"/>
      <point x="769" y="808"/>
      <point x="765" y="1207"/>
      <point x="762" y="1204" type="curve"/>
      <point x="762" y="1209"/>
      <point x="628" y="876"/>
      <point x="624" y="872" type="curve"/>
      <point x="297" y="1012" type="line" smooth="yes"/>
      <point x="296" y="1015"/>
      <point x="300" y="1018"/>
      <point x="294" y="1018" type="curve" smooth="yes"/>
      <point x="290" y="1018"/>
      <point x="89" y="1209"/>
      <point x="89" y="1204" type="curve" smooth="yes"/>
      <point x="85" y="1207"/>
      <point x="80" y="424"/>
      <point x="80" y="419" type="curve" smooth="yes"/>
      <point x="80" y="413"/>
      <point x="85" y="5"/>
    </contour>
  </outline>
</glyph>
<glyph name="O" format="1">
  <advance width="864"/>
  <unicode hex="004F"/>
  <outline>
    <contour>
      <point x="432" y="-32" type="curve" smooth="yes"/>
      <point x="626" y="-32"/>
      <point x="784" y="126"/>
      <point x="784" y="320" type="curve" smooth="yes"/>
      <point x="784" y="875" type="line" smooth="yes"/>
      <point x="784" y="1069"/>
      <point x="626" y="1227"/>
      <point x="432" y="1227" type="curve" smooth="yes"/>
      <point x="238" y="1227"/>
      <point x="80" y="1069"/>
      <point x="80" y="875" type="curve" smooth="yes"/>
      <point x="80" y="320" type="line" smooth="yes"/>
      <point x="80" y="126"/>
      <point x="238" y="-32"/>
    </contour>
    <contour>
      <point x="432" y="1195" type="curve" smooth="yes"/>
      <point x="608" y="1195"/>
      <point x="752" y="1051"/>
      <point x="752" y="875" type="curve" smooth="yes"/>
      <point x="752" y="320" type="line" smooth="yes"/>
      <point x="752" y="144"/>
      <point x="608" y="0"/>
      <point x="432" y="0" type="curve" smooth="yes"/>
      <point x="256" y="0"/>
      <point x="112" y="144"/>
      <point x="112" y="320" type="curve" smooth="yes"/>
      <point x="112" y="875" type="line" smooth="yes"/>
      <point x="112" y="1051"/>
      <point x="256" y="1195"/>
    </contour>
  </outline>
</glyph>
<glyph name="P" format="1">
  <advance width="686.0"/>
  <unicode hex="0050"/>
  <outline>
    <contour>
      <point x="526" y="1094" type="curve" smooth="yes"/>
      <point x="466" y="1162"/>
      <point x="384" y="1200"/>
      <point x="294" y="1200" type="curve" smooth="yes"/>
      <point x="96" y="1200" type="line" smooth="yes"/>
      <point x="88" y="1200"/>
      <point x="80" y="1192"/>
      <point x="80" y="1184" type="curve" smooth="yes"/>
      <point x="80" y="16" type="line" smooth="yes"/>
      <point x="80" y="8"/>
      <point x="88" y="0"/>
      <point x="96" y="0" type="curve" smooth="yes"/>
      <point x="104" y="0"/>
      <point x="112" y="8"/>
      <point x="112" y="16" type="curve" smooth="yes"/>
      <point x="112" y="530" type="line"/>
      <point x="294" y="530" type="line" smooth="yes"/>
      <point x="480" y="530"/>
      <point x="616" y="672"/>
      <point x="616" y="852" type="curve" smooth="yes"/>
      <point x="616" y="942"/>
      <point x="584" y="1028"/>
    </contour>
    <contour>
      <point x="502" y="644" type="curve" smooth="yes"/>
      <point x="450" y="592"/>
      <point x="376" y="562"/>
      <point x="294" y="562" type="curve" smooth="yes"/>
      <point x="112" y="562" type="line"/>
      <point x="112" y="1168" type="line"/>
      <point x="294" y="1168" type="line" smooth="yes"/>
      <point x="458" y="1168"/>
      <point x="584" y="1022"/>
      <point x="584" y="852" type="curve" smooth="yes"/>
      <point x="584" y="772"/>
      <point x="556" y="698"/>
    </contour>
  </outline>
</glyph>
<glyph name="R" format="1">
  <advance width="690.0"/>
  <unicode hex="0052"/>
  <outline>
    <contour>
      <point x="628" y="24" type="curve"/>
      <point x="334" y="532" type="line"/>
      <point x="502" y="554"/>
      <point x="616" y="686"/>
      <point x="616" y="852" type="curve" smooth="yes"/>
      <point x="616" y="1038"/>
      <point x="476" y="1200"/>
      <point x="294" y="1200" type="curve" smooth="yes"/>
      <point x="96" y="1200" type="line" smooth="yes"/>
      <point x="88" y="1200"/>
      <point x="80" y="1192"/>
      <point x="80" y="1184" type="curve" smooth="yes"/>
      <point x="80" y="16" type="line" smooth="yes"/>
      <point x="80" y="8"/>
      <point x="88" y="0"/>
      <point x="96" y="0" type="curve" smooth="yes"/>
      <point x="104" y="0"/>
      <point x="112" y="8"/>
      <point x="112" y="16" type="curve" smooth="yes"/>
      <point x="112" y="530" type="line"/>
      <point x="294" y="530" type="line"/>
      <point x="296" y="530"/>
      <point x="298" y="530"/>
      <point x="298" y="530" type="curve"/>
      <point x="600" y="8" type="line" smooth="yes"/>
      <point x="602" y="2"/>
      <point x="608" y="0"/>
      <point x="614" y="0" type="curve" smooth="yes"/>
      <point x="624" y="0"/>
      <point x="630" y="6"/>
      <point x="630" y="16" type="curve" smooth="yes"/>
      <point x="630" y="18"/>
      <point x="630" y="22"/>
    </contour>
    <contour>
      <point x="112" y="562" type="line"/>
      <point x="112" y="1168" type="line"/>
      <point x="294" y="1168" type="line" smooth="yes"/>
      <point x="458" y="1168"/>
      <point x="584" y="1022"/>
      <point x="584" y="852" type="curve" smooth="yes"/>
      <point x="584" y="690"/>
      <point x="466" y="562"/>
      <point x="294" y="562" type="curve" smooth="yes"/>
      <point x="196" y="562" type="line"/>
    </contour>
  </outline>
</glyph>
<glyph name="S" format="1">
  <advance width="616.0"/>
  <unicode hex="0053"/>
  <outline>
    <contour>
      <point x="308" y="-32" type="curve" smooth="yes"/>
      <point x="434" y="-32"/>
      <point x="536" y="70"/>
      <point x="536" y="196" type="curve" smooth="yes"/>
      <point x="536" y="464" type="line" smooth="yes"/>
      <point x="536" y="590"/>
      <point x="434" y="692"/>
      <point x="308" y="692" type="curve" smooth="yes"/>
      <point x="200" y="692"/>
      <point x="112" y="780"/>
      <point x="112" y="888" type="curve" smooth="yes"/>
      <point x="112" y="1004" type="line" smooth="yes"/>
      <point x="112" y="1112"/>
      <point x="200" y="1200"/>
      <point x="308" y="1200" type="curve" smooth="yes"/>
      <point x="416" y="1200"/>
      <point x="504" y="1112"/>
      <point x="504" y="1004" type="curve" smooth="yes"/>
      <point x="504" y="996"/>
      <point x="512" y="988"/>
      <point x="520" y="988" type="curve" smooth="yes"/>
      <point x="528" y="988"/>
      <point x="536" y="996"/>
      <point x="536" y="1004" type="curve" smooth="yes"/>
      <point x="536" y="1130"/>
      <point x="434" y="1232"/>
      <point x="308" y="1232" type="curve" smooth="yes"/>
      <point x="182" y="1232"/>
      <point x="80" y="1130"/>
      <point x="80" y="1004" type="curve" smooth="yes"/>
      <point x="80" y="888" type="line" smooth="yes"/>
      <point x="80" y="764"/>
      <point x="182" y="660"/>
      <point x="308" y="660" type="curve" smooth="yes"/>
      <point x="416" y="660"/>
      <point x="504" y="574"/>
      <point x="504" y="464" type="curve" smooth="yes"/>
      <point x="504" y="196" type="line" smooth="yes"/>
      <point x="504" y="88"/>
      <point x="416" y="0"/>
      <point x="308" y="0" type="curve" smooth="yes"/>
      <point x="200" y="0"/>
      <point x="112" y="88"/>
      <point x="112" y="196" type="curve" smooth="yes"/>
      <point x="112" y="204"/>
      <point x="104" y="212"/>
      <point x="96" y="212" type="curve" smooth="yes"/>
      <point x="88" y="212"/>
      <point x="80" y="204"/>
      <point x="80" y="196" type="curve" smooth="yes"/>
      <point x="80" y="70"/>
      <point x="182" y="-32"/>
    </contour>
  </outline>
</glyph>
<glyph name="T" format="1">
  <advance width="616.0"/>
  <unicode hex="0054"/>
  <outline>
    <contour>
      <point x="520" y="1200" type="curve"/>
      <point x="96" y="1200" type="line" smooth="yes"/>
      <point x="88" y="1200"/>
      <point x="80" y="1192"/>
      <point x="80" y="1184" type="curve" smooth="yes"/>
      <point x="80" y="1176"/>
      <point x="88" y="1168"/>
      <point x="96" y="1168" type="curve" smooth="yes"/>
      <point x="292" y="1168" type="line"/>
      <point x="292" y="16" type="line" smooth="yes"/>
      <point x="292" y="8"/>
      <point x="300" y="0"/>
      <point x="308" y="0" type="curve" smooth="yes"/>
      <point x="316" y="0"/>
      <point x="324" y="8"/>
      <point x="324" y="16" type="curve" smooth="yes"/>
      <point x="324" y="1168" type="line"/>
      <point x="520" y="1168" type="line" smooth="yes"/>
      <point x="528" y="1168"/>
      <point x="536" y="1176"/>
      <point x="536" y="1184" type="curve" smooth="yes"/>
      <point x="536" y="1192"/>
      <point x="528" y="1200"/>
    </contour>
  </outline>
</glyph>
<glyph name="U" format="1">
  <advance width="616.0"/>
  <unicode hex="0055"/>
  <outline>
    <contour>
      <point x="308" y="-32" type="curve" smooth="yes"/>
      <point x="434" y="-32"/>
      <point x="536" y="70"/>
      <point x="536" y="196" type="curve" smooth="yes"/>
      <point x="536" y="1184" type="line" smooth="yes"/>
      <point x="536" y="1192"/>
      <point x="528" y="1200"/>
      <point x="520" y="1200" type="curve" smooth="yes"/>
      <point x="512" y="1200"/>
      <point x="504" y="1192"/>
      <point x="504" y="1184" type="curve" smooth="yes"/>
      <point x="504" y="196" type="line" smooth="yes"/>
      <point x="504" y="88"/>
      <point x="416" y="0"/>
      <point x="308" y="0" type="curve" smooth="yes"/>
      <point x="200" y="0"/>
      <point x="112" y="88"/>
      <point x="112" y="196" type="curve" smooth="yes"/>
      <point x="112" y="1184" type="line" smooth="yes"/>
      <point x="112" y="1192"/>
      <point x="104" y="1200"/>
      <point x="96" y="1200" type="curve" smooth="yes"/>
      <point x="88" y="1200"/>
      <point x="80" y="1192"/>
      <point x="80" y="1184" type="curve" smooth="yes"/>
      <point x="80" y="196" type="line" smooth="yes"/>
      <point x="80" y="70"/>
      <point x="182" y="-32"/>
    </contour>
  </outline>
</glyph>
<glyph name="X" format="1">
  <advance width="618.0"/>
  <unicode hex="0058"/>
  <outline>
    <contour>
      <point x="326" y="600" type="line"/>
      <point x="536" y="1178" type="line"/>
      <point x="536" y="1180"/>
      <point x="538" y="1182"/>
      <point x="538" y="1184" type="curve" smooth="yes"/>
      <point x="538" y="1194"/>
      <point x="530" y="1200"/>
      <point x="522" y="1200" type="curve" smooth="yes"/>
      <point x="516" y="1200"/>
      <point x="508" y="1196"/>
      <point x="506" y="1190" type="curve" smooth="yes"/>
      <point x="310" y="646" type="line"/>
      <point x="112" y="1190" type="line" smooth="yes"/>
      <point x="110" y="1196"/>
      <point x="104" y="1200"/>
      <point x="98" y="1200" type="curve" smooth="yes"/>
      <point x="88" y="1200"/>
      <point x="82" y="1192"/>
      <point x="82" y="1182" type="curve" smooth="yes"/>
      <point x="82" y="1180"/>
      <point x="82" y="1180"/>
      <point x="82" y="1178" type="curve"/>
      <point x="292" y="600" type="line"/>
      <point x="82" y="22" type="line"/>
      <point x="82" y="20"/>
      <point x="82" y="18"/>
      <point x="82" y="18" type="curve"/>
      <point x="82" y="8"/>
      <point x="88" y="0"/>
      <point x="98" y="0" type="curve" smooth="yes"/>
      <point x="104" y="0"/>
      <point x="110" y="4"/>
      <point x="112" y="10" type="curve" smooth="yes"/>
      <point x="310" y="554" type="line"/>
      <point x="506" y="10" type="line"/>
      <point x="512" y="0"/>
      <point x="518" y="0"/>
      <point x="528" y="0" type="curve"/>
      <point x="534" y="2"/>
      <point x="538" y="10"/>
      <point x="538" y="16" type="curve" smooth="yes"/>
      <point x="538" y="18"/>
      <point x="536" y="20"/>
      <point x="536" y="22" type="curve"/>
    </contour>
  </outline>
</glyph>
<glyph name="Y" format="1">
  <advance width="596.0"/>
  <unicode hex="0059"/>
  <outline>
    <contour>
      <point x="512" y="1200" type="curve"/>
      <point x="510" y="1200"/>
      <point x="510" y="1200"/>
      <point x="508" y="1200" type="curve" smooth="yes"/>
      <point x="502" y="1200"/>
      <point x="494" y="1194"/>
      <point x="492" y="1188" type="curve" smooth="yes"/>
      <point x="300" y="354" type="line"/>
      <point x="104" y="1188" type="line" smooth="yes"/>
      <point x="102" y="1194"/>
      <point x="94" y="1200"/>
      <point x="86" y="1200" type="curve" smooth="yes"/>
      <point x="78" y="1200"/>
      <point x="72" y="1192"/>
      <point x="72" y="1182" type="curve" smooth="yes"/>
      <point x="72" y="1180" type="line"/>
      <point x="284" y="282" type="line"/>
      <point x="284" y="0" type="line" smooth="yes"/>
      <point x="284" y="-8"/>
      <point x="292" y="-16"/>
      <point x="300" y="-16" type="curve" smooth="yes"/>
      <point x="308" y="-16"/>
      <point x="316" y="-8"/>
      <point x="316" y="0" type="curve" smooth="yes"/>
      <point x="316" y="282" type="line"/>
      <point x="524" y="1180" type="line"/>
      <point x="524" y="1182" type="line"/>
      <point x="524" y="1190"/>
      <point x="518" y="1198"/>
    </contour>
  </outline>
</glyph>
<glyph name="bracketleft" format="1">
  <advance width="384.0"/>
  <unicode hex="005B"/>
  <outline>
    <contour>
      <point x="308" y="-32" type="line"/>
      <point x="316" y="-32"/>
      <point x="324" y="-24"/>
      <point x="324" y="-16" type="curve" smooth="yes"/>
      <point x="324" y="-8"/>
      <point x="316" y="0"/>
      <point x="308" y="0" type="curve" smooth="yes"/>
      <point x="112" y="0" type="line"/>
      <point x="112" y="1200" type="line"/>
      <point x="308" y="1200" type="line" smooth="yes"/>
      <point x="316" y="1200"/>
      <point x="324" y="1208"/>
      <point x="324" y="1216" type="curve" smooth="yes"/>
      <point x="324" y="1224"/>
      <point x="316" y="1232"/>
      <point x="308" y="1232" type="curve" smooth="yes"/>
      <point x="96" y="1232" type="line" smooth="yes"/>
      <point x="88" y="1232"/>
      <point x="80" y="1224"/>
      <point x="80" y="1216" type="curve" smooth="yes"/>
      <point x="80" y="-16" type="line" smooth="yes"/>
      <point x="80" y="-24"/>
      <point x="88" y="-32"/>
      <point x="96" y="-32" type="curve" smooth="yes"/>
    </contour>
  </outline>
</glyph>
<glyph name="grave" format="1">
  <advance width="318.0"/>
  <unicode hex="0060"/>
  <outline>
    <contour>
      <point x="220" y="1262" type="curve" smooth="yes"/>
      <point x="228" y="1262"/>
      <point x="236" y="1268"/>
      <point x="236" y="1276" type="curve" smooth="yes"/>
      <point x="236" y="1280"/>
      <point x="234" y="1286"/>
      <point x="232" y="1290" type="curve"/>
      <point x="108" y="1412" type="line" smooth="yes"/>
      <point x="104" y="1414"/>
      <point x="100" y="1416"/>
      <point x="96" y="1416" type="curve" smooth="yes"/>
      <point x="88" y="1416"/>
      <point x="82" y="1410"/>
      <point x="82" y="1400" type="curve" smooth="yes"/>
      <point x="82" y="1396"/>
      <point x="82" y="1392"/>
      <point x="86" y="1390" type="curve"/>
      <point x="208" y="1266" type="line"/>
      <point x="212" y="1264"/>
      <point x="216" y="1262"/>
    </contour>
  </outline>
</glyph>
<glyph name="c" format="1">
  <advance width="616.0"/>
  <unicode hex="0063"/>
  <outline>
    <contour>
      <point x="520" y="228" type="curve" smooth="yes"/>
      <point x="512" y="228"/>
      <point x="504" y="220"/>
      <point x="504" y="212" type="curve" smooth="yes"/>
      <point x="504" y="104"/>
      <point x="416" y="16"/>
      <point x="308" y="16" type="curve" smooth="yes"/>
      <point x="200" y="16"/>
      <point x="112" y="104"/>
      <point x="112" y="212" type="curve" smooth="yes"/>
      <point x="112" y="640" type="line" smooth="yes"/>
      <point x="112" y="748"/>
      <point x="200" y="836"/>
      <point x="308" y="836" type="curve" smooth="yes"/>
      <point x="416" y="836"/>
      <point x="504" y="748"/>
      <point x="504" y="640" type="curve" smooth="yes"/>
      <point x="504" y="632"/>
      <point x="512" y="624"/>
      <point x="520" y="624" type="curve" smooth="yes"/>
      <point x="528" y="624"/>
      <point x="536" y="632"/>
      <point x="536" y="640" type="curve" smooth="yes"/>
      <point x="536" y="766"/>
      <point x="434" y="868"/>
      <point x="308" y="868" type="curve" smooth="yes"/>
      <point x="182" y="868"/>
      <point x="80" y="766"/>
      <point x="80" y="640" type="curve" smooth="yes"/>
      <point x="80" y="212" type="line" smooth="yes"/>
      <point x="80" y="86"/>
      <point x="182" y="-16"/>
      <point x="308" y="-16" type="curve" smooth="yes"/>
      <point x="434" y="-16"/>
      <point x="536" y="86"/>
      <point x="536" y="212" type="curve" smooth="yes"/>
      <point x="536" y="220"/>
      <point x="528" y="228"/>
    </contour>
  </outline>
</glyph>
<glyph name="e" format="1">
  <advance width="616.0"/>
  <unicode hex="0065"/>
  <outline>
    <contour>
      <point x="520" y="418" type="line"/>
      <point x="528" y="418"/>
      <point x="536" y="426"/>
      <point x="536" y="434" type="curve" smooth="yes"/>
      <point x="536" y="640" type="line" smooth="yes"/>
      <point x="536" y="766"/>
      <point x="434" y="868"/>
      <point x="308" y="868" type="curve" smooth="yes"/>
      <point x="182" y="868"/>
      <point x="80" y="766"/>
      <point x="80" y="640" type="curve" smooth="yes"/>
      <point x="80" y="212" type="line" smooth="yes"/>
      <point x="80" y="86"/>
      <point x="182" y="-16"/>
      <point x="308" y="-16" type="curve" smooth="yes"/>
      <point x="434" y="-16"/>
      <point x="536" y="86"/>
      <point x="536" y="212" type="curve" smooth="yes"/>
      <point x="536" y="220"/>
      <point x="528" y="228"/>
      <point x="520" y="228" type="curve" smooth="yes"/>
      <point x="512" y="228"/>
      <point x="504" y="220"/>
      <point x="504" y="212" type="curve" smooth="yes"/>
      <point x="504" y="104"/>
      <point x="416" y="16"/>
      <point x="308" y="16" type="curve" smooth="yes"/>
      <point x="200" y="16"/>
      <point x="112" y="104"/>
      <point x="112" y="212" type="curve" smooth="yes"/>
      <point x="112" y="418" type="line"/>
    </contour>
    <contour>
      <point x="112" y="640" type="line"/>
      <point x="112" y="748"/>
      <point x="200" y="836"/>
      <point x="308" y="836" type="curve" smooth="yes"/>
      <point x="416" y="836"/>
      <point x="504" y="748"/>
      <point x="504" y="640" type="curve" smooth="yes"/>
      <point x="504" y="450" type="line"/>
      <point x="112" y="450" type="line"/>
    </contour>
  </outline>
</glyph>
<glyph name="f" format="1">
  <advance width="364.0"/>
  <unicode hex="0066"/>
  <outline>
    <contour>
      <point x="308" y="1216" type="curve" smooth="yes"/>
      <point x="182" y="1216"/>
      <point x="80" y="1114"/>
      <point x="80" y="988" type="curve"/>
      <point x="80" y="16" type="line" smooth="yes"/>
      <point x="80" y="8"/>
      <point x="88" y="0"/>
      <point x="96" y="0" type="curve" smooth="yes"/>
      <point x="104" y="0"/>
      <point x="112" y="8"/>
      <point x="112" y="16" type="curve" smooth="yes"/>
      <point x="112" y="654" type="line"/>
      <point x="236" y="654" type="line" smooth="yes"/>
      <point x="244" y="654"/>
      <point x="252" y="660"/>
      <point x="252" y="670" type="curve" smooth="yes"/>
      <point x="252" y="678"/>
      <point x="244" y="686"/>
      <point x="236" y="686" type="curve" smooth="yes"/>
      <point x="112" y="686" type="line"/>
      <point x="112" y="988" type="line" smooth="yes"/>
      <point x="112" y="1096"/>
      <point x="200" y="1184"/>
      <point x="308" y="1184" type="curve" smooth="yes"/>
      <point x="316" y="1184"/>
      <point x="324" y="1192"/>
      <point x="324" y="1200" type="curve" smooth="yes"/>
      <point x="324" y="1208"/>
      <point x="316" y="1216"/>
    </contour>
  </outline>
</glyph>
<glyph name="h" format="1">
  <advance width="616.0"/>
  <unicode hex="0068"/>
  <outline>
    <contour>
      <point x="308" y="868" type="curve" smooth="yes"/>
      <point x="224" y="868"/>
      <point x="152" y="824"/>
      <point x="112" y="756" type="curve"/>
      <point x="112" y="1200" type="line" smooth="yes"/>
      <point x="112" y="1208"/>
      <point x="104" y="1216"/>
      <point x="96" y="1216" type="curve" smooth="yes"/>
      <point x="88" y="1216"/>
      <point x="80" y="1208"/>
      <point x="80" y="1200" type="curve"/>
      <point x="80" y="640" type="line"/>
      <point x="80" y="640" type="line" smooth="yes"/>
      <point x="80" y="640" type="line"/>
      <point x="80" y="16" type="line"/>
      <point x="80" y="8"/>
      <point x="88" y="0"/>
      <point x="96" y="0" type="curve" smooth="yes"/>
      <point x="104" y="0"/>
      <point x="112" y="8"/>
      <point x="112" y="16" type="curve" smooth="yes"/>
      <point x="112" y="640" type="line" smooth="yes"/>
      <point x="112" y="748"/>
      <point x="200" y="836"/>
      <point x="308" y="836" type="curve" smooth="yes"/>
      <point x="416" y="836"/>
      <point x="504" y="748"/>
      <point x="504" y="640" type="curve" smooth="yes"/>
      <point x="504" y="16" type="line" smooth="yes"/>
      <point x="504" y="8"/>
      <point x="512" y="0"/>
      <point x="520" y="0" type="curve" smooth="yes"/>
      <point x="528" y="0"/>
      <point x="536" y="8"/>
      <point x="536" y="16" type="curve" smooth="yes"/>
      <point x="536" y="640" type="line" smooth="yes"/>
      <point x="536" y="766"/>
      <point x="434" y="868"/>
    </contour>
  </outline>
</glyph>
<glyph name="l" format="1">
  <advance width="192.0"/>
  <unicode hex="006C"/>
  <outline>
    <contour>
      <point x="96" y="0" type="curve" smooth="yes"/>
      <point x="104" y="0"/>
      <point x="112" y="8"/>
      <point x="112" y="16" type="curve" smooth="yes"/>
      <point x="112" y="1216" type="line" smooth="yes"/>
      <point x="112" y="1224"/>
      <point x="104" y="1232"/>
      <point x="96" y="1232" type="curve" smooth="yes"/>
      <point x="88" y="1232"/>
      <point x="80" y="1224"/>
      <point x="80" y="1216" type="curve" smooth="yes"/>
      <point x="80" y="16" type="line" smooth="yes"/>
      <point x="80" y="8"/>
      <point x="88" y="0"/>
    </contour>
  </outline>
</glyph>
<glyph name="p" format="1">
  <advance width="616.0"/>
  <unicode hex="0070"/>
  <outline>
    <contour>
      <point x="308" y="868" type="curve" smooth="yes"/>
      <point x="182" y="868"/>
      <point x="80" y="766"/>
      <point x="80" y="640" type="curve" smooth="yes"/>
      <point x="80" y="212" type="line"/>
      <point x="80" y="212" type="line" smooth="yes"/>
      <point x="80" y="212" type="line" smooth="yes"/>
      <point x="80" y="-464" type="line" smooth="yes"/>
      <point x="80" y="-472"/>
      <point x="88" y="-480"/>
      <point x="96" y="-480" type="curve" smooth="yes"/>
      <point x="104" y="-480"/>
      <point x="112" y="-472"/>
      <point x="112" y="-464" type="curve" smooth="yes"/>
      <point x="112" y="96" type="line"/>
      <point x="152" y="28"/>
      <point x="224" y="-16"/>
      <point x="308" y="-16" type="curve" smooth="yes"/>
      <point x="434" y="-16"/>
      <point x="536" y="86"/>
      <point x="536" y="212" type="curve" smooth="yes"/>
      <point x="536" y="640" type="line" smooth="yes"/>
      <point x="536" y="766"/>
      <point x="434" y="868"/>
    </contour>
    <contour>
      <point x="504" y="212" type="line"/>
      <point x="504" y="104"/>
      <point x="416" y="16"/>
      <point x="308" y="16" type="curve" smooth="yes"/>
      <point x="200" y="16"/>
      <point x="112" y="104"/>
      <point x="112" y="212" type="curve" smooth="yes"/>
      <point x="112" y="640" type="line" smooth="yes"/>
      <point x="112" y="748"/>
      <point x="200" y="836"/>
      <point x="308" y="836" type="curve" smooth="yes"/>
      <point x="416" y="836"/>
      <point x="504" y="748"/>
      <point x="504" y="640" type="curve" smooth="yes"/>
    </contour>
  </outline>
</glyph>
<glyph name="r" format="1">
  <advance width="364.0"/>
  <unicode hex="0072"/>
  <outline>
    <contour>
      <point x="308" y="868" type="curve" smooth="yes"/>
      <point x="224" y="868"/>
      <point x="152" y="824"/>
      <point x="112" y="756" type="curve"/>
      <point x="112" y="820" type="line" smooth="yes"/>
      <point x="112" y="828"/>
      <point x="104" y="836"/>
      <point x="96" y="836" type="curve"/>
      <point x="96" y="836" type="line" smooth="yes"/>
      <point x="88" y="836"/>
      <point x="80" y="828"/>
      <point x="80" y="820" type="curve" smooth="yes"/>
      <point x="80" y="644" type="line" smooth="yes"/>
      <point x="80" y="644" type="line"/>
      <point x="80" y="642"/>
      <point x="80" y="642"/>
      <point x="80" y="640" type="curve" smooth="yes"/>
      <point x="80" y="16" type="line" smooth="yes"/>
      <point x="80" y="8"/>
      <point x="88" y="0"/>
      <point x="96" y="0" type="curve" smooth="yes"/>
      <point x="104" y="0"/>
      <point x="112" y="8"/>
      <point x="112" y="16" type="curve" smooth="yes"/>
      <point x="112" y="640" type="line" smooth="yes"/>
      <point x="112" y="748"/>
      <point x="200" y="836"/>
      <point x="308" y="836" type="curve" smooth="yes"/>
      <point x="316" y="836"/>
      <point x="324" y="844"/>
      <point x="324" y="852" type="curve" smooth="yes"/>
      <point x="324" y="860"/>
      <point x="316" y="868"/>
    </contour>
  </outline>
</glyph>
<glyph name="t" format="1">
  <advance width="404.0"/>
  <unicode hex="0074"/>
  <outline>
    <contour>
      <point x="308" y="16" type="curve" smooth="yes"/>
      <point x="200" y="16"/>
      <point x="112" y="104"/>
      <point x="112" y="212" type="curve" smooth="yes"/>
      <point x="112" y="654" type="line"/>
      <point x="236" y="654" type="line" smooth="yes"/>
      <point x="244" y="654"/>
      <point x="252" y="660"/>
      <point x="252" y="670" type="curve" smooth="yes"/>
      <point x="252" y="678"/>
      <point x="244" y="686"/>
      <point x="236" y="686" type="curve" smooth="yes"/>
      <point x="112" y="686" type="line"/>
      <point x="112" y="1034" type="line" smooth="yes"/>
      <point x="112" y="1042"/>
      <point x="104" y="1050"/>
      <point x="96" y="1050" type="curve" smooth="yes"/>
      <point x="88" y="1050"/>
      <point x="80" y="1042"/>
      <point x="80" y="1034" type="curve"/>
      <point x="80" y="670" type="line"/>
      <point x="80" y="670" type="line" smooth="yes"/>
      <point x="80" y="670" type="line" smooth="yes"/>
      <point x="80" y="212" type="line" smooth="yes"/>
      <point x="80" y="86"/>
      <point x="182" y="-16"/>
      <point x="308" y="-16" type="curve" smooth="yes"/>
      <point x="316" y="-16"/>
      <point x="324" y="-8"/>
      <point x="324" y="0" type="curve" smooth="yes"/>
      <point x="324" y="8"/>
      <point x="316" y="16"/>
    </contour>
  </outline>
</glyph>
<glyph name="w" format="1">
  <advance width="714.0"/>
  <unicode hex="0077"/>
  <outline>
    <contour>
      <point x="640" y="852" type="curve" smooth="yes"/>
      <point x="632" y="854"/>
      <point x="624" y="848"/>
      <point x="622" y="838" type="curve" smooth="yes"/>
      <point x="498" y="96" type="line"/>
      <point x="372" y="838" type="line" smooth="yes"/>
      <point x="372" y="846"/>
      <point x="364" y="852"/>
      <point x="356" y="852" type="curve" smooth="yes"/>
      <point x="350" y="852"/>
      <point x="342" y="846"/>
      <point x="342" y="838" type="curve" smooth="yes"/>
      <point x="216" y="96" type="line"/>
      <point x="92" y="838" type="line" smooth="yes"/>
      <point x="90" y="848"/>
      <point x="82" y="854"/>
      <point x="74" y="852" type="curve" smooth="yes"/>
      <point x="64" y="850"/>
      <point x="58" y="842"/>
      <point x="60" y="834" type="curve" smooth="yes"/>
      <point x="200" y="-2" type="line" smooth="yes"/>
      <point x="202" y="-10"/>
      <point x="208" y="-16"/>
      <point x="216" y="-16" type="curve" smooth="yes"/>
      <point x="224" y="-16"/>
      <point x="230" y="-10"/>
      <point x="232" y="-2" type="curve" smooth="yes"/>
      <point x="356" y="740" type="line"/>
      <point x="482" y="-2" type="line" smooth="yes"/>
      <point x="484" y="-10"/>
      <point x="490" y="-16"/>
      <point x="498" y="-16" type="curve" smooth="yes"/>
      <point x="506" y="-16"/>
      <point x="512" y="-10"/>
      <point x="514" y="-2" type="curve" smooth="yes"/>
      <point x="654" y="834" type="line" smooth="yes"/>
      <point x="656" y="842"/>
      <point x="650" y="850"/>
    </contour>
  </outline>
</glyph>
<glyph name="x" format="1">
  <advance width="616.0"/>
  <unicode hex="0078"/>
  <outline>
    <contour>
      <point x="326" y="426" type="line"/>
      <point x="534" y="828" type="line" smooth="yes"/>
      <point x="538" y="836"/>
      <point x="536" y="846"/>
      <point x="528" y="850" type="curve" smooth="yes"/>
      <point x="520" y="854"/>
      <point x="510" y="852"/>
      <point x="506" y="844" type="curve" smooth="yes"/>
      <point x="308" y="460" type="line"/>
      <point x="110" y="844" type="line" smooth="yes"/>
      <point x="106" y="852"/>
      <point x="96" y="854"/>
      <point x="88" y="850" type="curve" smooth="yes"/>
      <point x="80" y="846"/>
      <point x="78" y="836"/>
      <point x="82" y="828" type="curve" smooth="yes"/>
      <point x="290" y="426" type="line"/>
      <point x="82" y="24" type="line" smooth="yes"/>
      <point x="78" y="16"/>
      <point x="80" y="6"/>
      <point x="88" y="2" type="curve" smooth="yes"/>
      <point x="92" y="0"/>
      <point x="94" y="0"/>
      <point x="96" y="0" type="curve" smooth="yes"/>
      <point x="102" y="0"/>
      <point x="108" y="4"/>
      <point x="110" y="8" type="curve" smooth="yes"/>
      <point x="308" y="392" type="line"/>
      <point x="506" y="8" type="line" smooth="yes"/>
      <point x="508" y="4"/>
      <point x="514" y="0"/>
      <point x="520" y="0" type="curve" smooth="yes"/>
      <point x="522" y="0"/>
      <point x="524" y="0"/>
      <point x="528" y="2" type="curve" smooth="yes"/>
      <point x="536" y="6"/>
      <point x="538" y="16"/>
      <point x="534" y="24" type="curve" smooth="yes"/>
    </contour>
  </outline>
</glyph>
<glyph name="y" format="1">
  <advance width="576.0"/>
  <unicode hex="0079"/>
  <outline>
    <contour>
      <point x="516" y="832" type="line"/>
      <point x="518" y="840"/>
      <point x="512" y="850"/>
      <point x="504" y="852" type="curve" smooth="yes"/>
      <point x="496" y="854"/>
      <point x="486" y="848"/>
      <point x="484" y="840" type="curve" smooth="yes"/>
      <point x="288" y="66" type="line"/>
      <point x="92" y="840" type="line" smooth="yes"/>
      <point x="90" y="848"/>
      <point x="80" y="854"/>
      <point x="72" y="852" type="curve" smooth="yes"/>
      <point x="64" y="850"/>
      <point x="58" y="840"/>
      <point x="60" y="832" type="curve" smooth="yes"/>
      <point x="272" y="0" type="line"/>
      <point x="154" y="-460" type="line" smooth="yes"/>
      <point x="152" y="-468"/>
      <point x="158" y="-478"/>
      <point x="166" y="-480" type="curve" smooth="yes"/>
      <point x="168" y="-480"/>
      <point x="170" y="-480"/>
      <point x="170" y="-480" type="curve" smooth="yes"/>
      <point x="178" y="-480"/>
      <point x="184" y="-476"/>
      <point x="186" y="-468" type="curve" smooth="yes"/>
      <point x="304" y="-4" type="line" smooth="yes"/>
      <point x="304" y="-4" type="line" smooth="yes"/>
    </contour>
  </outline>
</glyph>
<glyph name="bar" format="1">
  <advance width="192.0"/>
  <unicode hex="007C"/>
  <outline>
    <contour>
      <point x="96" y="1296" type="curve" smooth="yes"/>
      <point x="88" y="1296"/>
      <point x="80" y="1288"/>
      <point x="80" y="1280" type="curve" smooth="yes"/>
      <point x="80" y="-80" type="line" smooth="yes"/>
      <point x="80" y="-88"/>
      <point x="88" y="-96"/>
      <point x="96" y="-96" type="curve" smooth="yes"/>
      <point x="104" y="-96"/>
      <point x="112" y="-88"/>
      <point x="112" y="-80" type="curve" smooth="yes"/>
      <point x="112" y="1280" type="line" smooth="yes"/>
      <point x="112" y="1288"/>
      <point x="104" y="1296"/>
    </contour>
  </outline>
</glyph>
<glyph name="asciitilde" format="1">
  <advance width="616.0"/>
  <unicode hex="007E"/>
  <outline>
    <contour>
      <point x="140" y="629" type="curve" smooth="yes"/>
      <point x="149" y="675"/>
      <point x="188" y="711"/>
      <point x="237" y="711" type="curve" smooth="yes"/>
      <point x="273" y="711"/>
      <point x="305" y="691"/>
      <point x="323" y="661" type="curve" smooth="yes"/>
      <point x="335" y="641"/>
      <point x="356" y="628"/>
      <point x="380" y="628" type="curve" smooth="yes"/>
      <point x="414" y="628"/>
      <point x="440" y="651"/>
      <point x="445" y="682" type="curve" smooth="yes"/>
      <point x="446" y="691"/>
      <point x="455" y="697"/>
      <point x="463" y="696" type="curve" smooth="yes"/>
      <point x="472" y="695"/>
      <point x="478" y="686"/>
      <point x="477" y="678" type="curve" smooth="yes"/>
      <point x="470" y="631"/>
      <point x="430" y="596"/>
      <point x="380" y="596" type="curve" smooth="yes"/>
      <point x="344" y="596"/>
      <point x="313" y="615"/>
      <point x="295" y="645" type="curve" smooth="yes"/>
      <point x="283" y="665"/>
      <point x="261" y="679"/>
      <point x="237" y="679" type="curve" smooth="yes"/>
      <point x="204" y="679"/>
      <point x="177" y="655"/>
      <point x="172" y="623" type="curve" smooth="yes"/>
      <point x="170" y="615"/>
      <point x="162" y="609"/>
      <point x="153" y="610" type="curve" smooth="yes"/>
      <point x="145" y="612"/>
      <point x="139" y="620"/>
    </contour>
  </outline>
</glyph>
<glyph name="sterling" format="1">
  <advance width="616.0"/>
  <unicode hex="00A3"/>
  <outline>
    <contour>
      <point x="96" y="-16" type="curve" smooth="yes"/>
      <point x="520" y="-16" type="line"/>
      <point x="528" y="-16"/>
      <point x="536" y="-8"/>
      <point x="536" y="0" type="curve" smooth="yes"/>
      <point x="536" y="8"/>
      <point x="528" y="16"/>
      <point x="520" y="16" type="curve" smooth="yes"/>
      <point x="182" y="16" type="line"/>
      <point x="214" y="42"/>
      <point x="234" y="81"/>
      <point x="234" y="124" type="curve"/>
      <point x="234" y="654" type="line"/>
      <point x="358" y="654" type="line" smooth="yes"/>
      <point x="366" y="654"/>
      <point x="374" y="660"/>
      <point x="374" y="670" type="curve" smooth="yes"/>
      <point x="374" y="678"/>
      <point x="366" y="686"/>
      <point x="358" y="686" type="curve" smooth="yes"/>
      <point x="234" y="686" type="line"/>
      <point x="234" y="988" type="line" smooth="yes"/>
      <point x="234" y="1096"/>
      <point x="322" y="1184"/>
      <point x="430" y="1184" type="curve" smooth="yes"/>
      <point x="438" y="1184"/>
      <point x="446" y="1192"/>
      <point x="446" y="1200" type="curve" smooth="yes"/>
      <point x="446" y="1208"/>
      <point x="438" y="1216"/>
      <point x="430" y="1216" type="curve" smooth="yes"/>
      <point x="304" y="1216"/>
      <point x="202" y="1114"/>
      <point x="202" y="988" type="curve" smooth="yes"/>
      <point x="202" y="124" type="line" smooth="yes"/>
      <point x="202" y="64"/>
      <point x="154" y="16"/>
      <point x="96" y="16" type="curve"/>
      <point x="88" y="16"/>
      <point x="80" y="8"/>
      <point x="80" y="0" type="curve" smooth="yes"/>
      <point x="80" y="-8"/>
      <point x="88" y="-16"/>
    </contour>
  </outline>
</glyph>
<glyph name="currency" format="1">
  <advance width="677.0"/>
  <unicode hex="00A4"/>
  <outline>
    <contour>
      <point x="534" y="610" type="curve" smooth="yes"/>
      <point x="534" y="242" type="line" smooth="yes"/>
      <point x="534" y="134"/>
      <point x="446" y="46"/>
      <point x="338" y="46" type="curve" smooth="yes"/>
      <point x="230" y="46"/>
      <point x="142" y="134"/>
      <point x="142" y="242" type="curve" smooth="yes"/>
      <point x="142" y="610" type="line" smooth="yes"/>
      <point x="142" y="718"/>
      <point x="230" y="806"/>
      <point x="338" y="806" type="curve" smooth="yes"/>
      <point x="446" y="806"/>
      <point x="534" y="718"/>
    </contour>
    <contour>
      <point x="569" y="4" type="line"/>
      <point x="572" y="1"/>
      <point x="576" y="0"/>
      <point x="581" y="0" type="curve" smooth="yes"/>
      <point x="585" y="0"/>
      <point x="589" y="1"/>
      <point x="592" y="4" type="curve" smooth="yes"/>
      <point x="595" y="7"/>
      <point x="597" y="11"/>
      <point x="597" y="17" type="curve" smooth="yes"/>
      <point x="597" y="21"/>
      <point x="595" y="25"/>
      <point x="592" y="28" type="curve" smooth="yes"/>
      <point x="518" y="102" type="line"/>
      <point x="548" y="140"/>
      <point x="566" y="189"/>
      <point x="566" y="242" type="curve" smooth="yes"/>
      <point x="566" y="610" type="line" smooth="yes"/>
      <point x="566" y="663"/>
      <point x="548" y="712"/>
      <point x="517" y="751" type="curve"/>
      <point x="591" y="825" type="line" smooth="yes"/>
      <point x="594" y="828"/>
      <point x="596" y="832"/>
      <point x="596" y="836" type="curve" smooth="yes"/>
      <point x="596" y="840"/>
      <point x="594" y="845"/>
      <point x="591" y="847" type="curve" smooth="yes"/>
      <point x="589" y="850"/>
      <point x="584" y="852"/>
      <point x="580" y="852" type="curve" smooth="yes"/>
      <point x="576" y="852"/>
      <point x="572" y="850"/>
      <point x="569" y="847" type="curve" smooth="yes"/>
      <point x="496" y="774" type="line"/>
      <point x="455" y="814"/>
      <point x="399" y="838"/>
      <point x="338" y="838" type="curve" smooth="yes"/>
      <point x="277" y="838"/>
      <point x="221" y="814"/>
      <point x="180" y="774" type="curve"/>
      <point x="107" y="847" type="line" smooth="yes"/>
      <point x="104" y="850"/>
      <point x="100" y="852"/>
      <point x="96" y="852" type="curve" smooth="yes"/>
      <point x="92" y="852"/>
      <point x="87" y="850"/>
      <point x="85" y="847" type="curve" smooth="yes"/>
      <point x="82" y="845"/>
      <point x="80" y="840"/>
      <point x="80" y="836" type="curve" smooth="yes"/>
      <point x="80" y="832"/>
      <point x="82" y="828"/>
      <point x="85" y="825" type="curve" smooth="yes"/>
      <point x="159" y="751" type="line"/>
      <point x="128" y="712"/>
      <point x="110" y="663"/>
      <point x="110" y="610" type="curve" smooth="yes"/>
      <point x="110" y="242" type="line" smooth="yes"/>
      <point x="110" y="189"/>
      <point x="128" y="141"/>
      <point x="158" y="102" type="curve"/>
      <point x="84" y="28" type="line" smooth="yes"/>
      <point x="81" y="25"/>
      <point x="80" y="21"/>
      <point x="80" y="16" type="curve" smooth="yes"/>
      <point x="80" y="12"/>
      <point x="81" y="8"/>
      <point x="84" y="5" type="curve" smooth="yes"/>
      <point x="87" y="2"/>
      <point x="91" y="0"/>
      <point x="96" y="0" type="curve" smooth="yes"/>
      <point x="100" y="0"/>
      <point x="104" y="2"/>
      <point x="107" y="5" type="curve" smooth="yes"/>
      <point x="180" y="78" type="line"/>
      <point x="221" y="38"/>
      <point x="277" y="14"/>
      <point x="338" y="14" type="curve" smooth="yes"/>
      <point x="399" y="14"/>
      <point x="455" y="38"/>
      <point x="496" y="78" type="curve"/>
    </contour>
  </outline>
</glyph>
<glyph name="yen" format="1">
  <advance width="596.0"/>
  <unicode hex="00A5"/>
  <outline>
    <contour>
      <point x="308" y="0" type="curve" smooth="yes"/>
      <point x="317" y="0"/>
      <point x="324" y="7"/>
      <point x="324" y="16" type="curve" smooth="yes"/>
      <point x="324" y="330" type="line"/>
      <point x="422" y="330" type="line" smooth="yes"/>
      <point x="431" y="330"/>
      <point x="438" y="337"/>
      <point x="438" y="346" type="curve" smooth="yes"/>
      <point x="438" y="355"/>
      <point x="431" y="362"/>
      <point x="422" y="362" type="curve" smooth="yes"/>
      <point x="324" y="362" type="line"/>
      <point x="324" y="410" type="line"/>
      <point x="422" y="410" type="line" smooth="yes"/>
      <point x="431" y="410"/>
      <point x="438" y="417"/>
      <point x="438" y="426" type="curve" smooth="yes"/>
      <point x="438" y="435"/>
      <point x="431" y="442"/>
      <point x="422" y="442" type="curve" smooth="yes"/>
      <point x="324" y="442" type="line"/>
      <point x="324" y="524" type="line"/>
      <point x="535" y="1195" type="line" smooth="yes"/>
      <point x="538" y="1203"/>
      <point x="533" y="1213"/>
      <point x="525" y="1215" type="curve" smooth="yes"/>
      <point x="517" y="1218"/>
      <point x="507" y="1213"/>
      <point x="505" y="1205" type="curve" smooth="yes"/>
      <point x="308" y="579" type="line"/>
      <point x="111" y="1205" type="line" smooth="yes"/>
      <point x="109" y="1213"/>
      <point x="99" y="1218"/>
      <point x="91" y="1215" type="curve" smooth="yes"/>
      <point x="83" y="1213"/>
      <point x="78" y="1203"/>
      <point x="81" y="1195" type="curve" smooth="yes"/>
      <point x="292" y="524" type="line"/>
      <point x="292" y="442" type="line"/>
      <point x="187" y="442" type="line" smooth="yes"/>
      <point x="178" y="442"/>
      <point x="171" y="435"/>
      <point x="171" y="426" type="curve" smooth="yes"/>
      <point x="171" y="417"/>
      <point x="178" y="410"/>
      <point x="187" y="410" type="curve" smooth="yes"/>
      <point x="292" y="410" type="line"/>
      <point x="292" y="362" type="line"/>
      <point x="187" y="362" type="line" smooth="yes"/>
      <point x="178" y="362"/>
      <point x="171" y="355"/>
      <point x="171" y="346" type="curve" smooth="yes"/>
      <point x="171" y="337"/>
      <point x="178" y="330"/>
      <point x="187" y="330" type="curve" smooth="yes"/>
      <point x="292" y="330" type="line"/>
      <point x="292" y="16" type="line" smooth="yes"/>
      <point x="292" y="7"/>
      <point x="299" y="0"/>
    </contour>
  </outline>
</glyph>
<glyph name="dieresis" format="1">
  <advance width="280.0"/>
  <unicode hex="00A8"/>
  <outline>
    <contour>
      <point x="180" y="1298" type="curve" smooth="yes"/>
      <point x="190" y="1298"/>
      <point x="200" y="1306"/>
      <point x="200" y="1318" type="curve" smooth="yes"/>
      <point x="200" y="1328"/>
      <point x="190" y="1338"/>
      <point x="180" y="1338" type="curve" smooth="yes"/>
      <point x="168" y="1338"/>
      <point x="160" y="1328"/>
      <point x="160" y="1318" type="curve" smooth="yes"/>
      <point x="160" y="1306"/>
      <point x="168" y="1298"/>
    </contour>
    <contour>
      <point x="100" y="1298" type="curve" smooth="yes"/>
      <point x="110" y="1298"/>
      <point x="120" y="1306"/>
      <point x="120" y="1318" type="curve" smooth="yes"/>
      <point x="120" y="1328"/>
      <point x="110" y="1338"/>
      <point x="100" y="1338" type="curve" smooth="yes"/>
      <point x="88" y="1338"/>
      <point x="80" y="1328"/>
      <point x="80" y="1318" type="curve" smooth="yes"/>
      <point x="80" y="1306"/>
      <point x="88" y="1298"/>
    </contour>
  </outline>
</glyph>
<glyph name="copyright" format="1">
  <advance width="616.0"/>
  <unicode hex="00A9"/>
  <outline>
    <contour>
      <point x="416" y="852" type="curve" smooth="yes"/>
      <point x="416" y="844"/>
      <point x="424" y="836"/>
      <point x="432" y="836" type="curve" smooth="yes"/>
      <point x="440" y="836"/>
      <point x="448" y="844"/>
      <point x="448" y="852" type="curve" smooth="yes"/>
      <point x="448" y="926"/>
      <point x="384" y="990"/>
      <point x="310" y="990" type="curve" smooth="yes"/>
      <point x="234" y="990"/>
      <point x="170" y="926"/>
      <point x="170" y="852" type="curve" smooth="yes"/>
      <point x="170" y="354" type="line" smooth="yes"/>
      <point x="170" y="278"/>
      <point x="234" y="214"/>
      <point x="310" y="214" type="curve" smooth="yes"/>
      <point x="384" y="214"/>
      <point x="448" y="278"/>
      <point x="448" y="354" type="curve" smooth="yes"/>
      <point x="448" y="362"/>
      <point x="440" y="370"/>
      <point x="432" y="370" type="curve" smooth="yes"/>
      <point x="424" y="370"/>
      <point x="416" y="362"/>
      <point x="416" y="354" type="curve" smooth="yes"/>
      <point x="416" y="294"/>
      <point x="368" y="246"/>
      <point x="310" y="246" type="curve" smooth="yes"/>
      <point x="250" y="246"/>
      <point x="202" y="294"/>
      <point x="202" y="354" type="curve" smooth="yes"/>
      <point x="202" y="852" type="line" smooth="yes"/>
      <point x="202" y="910"/>
      <point x="250" y="958"/>
      <point x="310" y="958" type="curve" smooth="yes"/>
      <point x="368" y="958"/>
      <point x="416" y="910"/>
    </contour>
    <component base="O"/>
  </outline>
</glyph>
<glyph name="ordfeminine" format="1">
  <advance width="498.0"/>
  <unicode hex="00AA"/>
  <outline>
    <contour>
      <point x="280" y="1022" type="line"/>
      <point x="354" y="1022"/>
      <point x="418" y="1086"/>
      <point x="418" y="1162" type="curve" smooth="yes"/>
      <point x="418" y="1302" type="line" smooth="yes"/>
      <point x="418" y="1376"/>
      <point x="354" y="1440"/>
      <point x="280" y="1440" type="curve" smooth="yes"/>
      <point x="220" y="1440" type="line" smooth="yes"/>
      <point x="211" y="1440"/>
      <point x="204" y="1433"/>
      <point x="204" y="1424" type="curve" smooth="yes"/>
      <point x="204" y="1415"/>
      <point x="211" y="1408"/>
      <point x="220" y="1408" type="curve" smooth="yes"/>
      <point x="280" y="1408" type="line" smooth="yes"/>
      <point x="338" y="1408"/>
      <point x="386" y="1360"/>
      <point x="386" y="1302" type="curve" smooth="yes"/>
      <point x="386" y="1279" type="line"/>
      <point x="360" y="1310"/>
      <point x="322" y="1330"/>
      <point x="280" y="1330" type="curve" smooth="yes"/>
      <point x="220" y="1330" type="line" smooth="yes"/>
      <point x="144" y="1330"/>
      <point x="80" y="1266"/>
      <point x="80" y="1192" type="curve" smooth="yes"/>
      <point x="80" y="1162" type="line" smooth="yes"/>
      <point x="80" y="1086"/>
      <point x="144" y="1022"/>
      <point x="220" y="1022" type="curve" smooth="yes"/>
    </contour>
    <contour>
      <point x="220" y="1054" type="line"/>
      <point x="160" y="1054"/>
      <point x="112" y="1102"/>
      <point x="112" y="1162" type="curve" smooth="yes"/>
      <point x="112" y="1192" type="line" smooth="yes"/>
      <point x="112" y="1250"/>
      <point x="160" y="1298"/>
      <point x="220" y="1298" type="curve" smooth="yes"/>
      <point x="280" y="1298" type="line" smooth="yes"/>
      <point x="338" y="1298"/>
      <point x="386" y="1250"/>
      <point x="386" y="1192" type="curve" smooth="yes"/>
      <point x="386" y="1162" type="line" smooth="yes"/>
      <point x="386" y="1102"/>
      <point x="338" y="1054"/>
      <point x="280" y="1054" type="curve" smooth="yes"/>
    </contour>
  </outline>
</glyph>
<glyph name="logicalnot" format="1">
  <advance width="616.0"/>
  <unicode hex="00AC"/>
  <outline>
    <contour>
      <point x="520" y="198" type="curve" smooth="yes"/>
      <point x="528" y="198"/>
      <point x="536" y="206"/>
      <point x="536" y="214" type="curve" smooth="yes"/>
      <point x="536" y="426" type="line" smooth="yes"/>
      <point x="536" y="434"/>
      <point x="528" y="442"/>
      <point x="520" y="442" type="curve" smooth="yes"/>
      <point x="96" y="442" type="line" smooth="yes"/>
      <point x="88" y="442"/>
      <point x="80" y="434"/>
      <point x="80" y="426" type="curve" smooth="yes"/>
      <point x="80" y="418"/>
      <point x="88" y="410"/>
      <point x="96" y="410" type="curve" smooth="yes"/>
      <point x="504" y="410" type="line"/>
      <point x="504" y="214" type="line"/>
      <point x="504" y="206"/>
      <point x="512" y="198"/>
    </contour>
  </outline>
</glyph>
<glyph name="registered" format="1">
  <advance width="500.0"/>
  <unicode hex="00AE"/>
  <outline>
    <contour>
      <point x="310" y="959" type="line"/>
      <point x="368" y="959"/>
      <point x="416" y="911"/>
      <point x="416" y="853" type="curve"/>
      <point x="416" y="723" type="line"/>
      <point x="416" y="663"/>
      <point x="368" y="615"/>
      <point x="310" y="615" type="curve"/>
      <point x="203" y="615" type="line"/>
      <point x="203" y="959" type="line"/>
    </contour>
    <contour>
      <point x="423" y="230" type="curve" smooth="yes"/>
      <point x="425" y="230"/>
      <point x="426" y="230"/>
      <point x="428" y="231" type="curve" smooth="yes"/>
      <point x="434" y="233"/>
      <point x="438" y="241"/>
      <point x="438" y="248" type="curve" smooth="yes"/>
      <point x="438" y="251" type="line"/>
      <point x="318" y="583" type="line"/>
      <point x="388" y="587"/>
      <point x="448" y="650"/>
      <point x="448" y="723" type="curve"/>
      <point x="448" y="853" type="line"/>
      <point x="448" y="927"/>
      <point x="384" y="991"/>
      <point x="310" y="991" type="curve"/>
      <point x="187" y="991" type="line"/>
      <point x="179" y="991"/>
      <point x="171" y="983"/>
      <point x="171" y="975" type="curve" smooth="yes"/>
      <point x="171" y="246" type="line"/>
      <point x="171" y="238"/>
      <point x="179" y="230"/>
      <point x="187" y="230" type="curve" smooth="yes"/>
      <point x="195" y="230"/>
      <point x="203" y="238"/>
      <point x="203" y="246" type="curve"/>
      <point x="203" y="583" type="line"/>
      <point x="284" y="583" type="line"/>
      <point x="407" y="240" type="line"/>
      <point x="409" y="234"/>
      <point x="416" y="230"/>
    </contour>
    <component base="O"/>
  </outline>
</glyph>
<glyph name="Oslash" format="1">
  <advance width="616.0"/>
  <unicode hex="00D8"/>
  <outline>
    <contour>
      <point x="519" y="1196" type="line"/>
      <point x="522" y="1204"/>
      <point x="517" y="1213"/>
      <point x="509" y="1216" type="curve" smooth="yes"/>
      <point x="501" y="1219"/>
      <point x="492" y="1214"/>
      <point x="489" y="1206" type="curve" smooth="yes"/>
      <point x="97" y="21" type="line" smooth="yes"/>
      <point x="94" y="13"/>
      <point x="99" y="4"/>
      <point x="107" y="1" type="curve" smooth="yes"/>
      <point x="115" y="-2"/>
      <point x="124" y="3"/>
      <point x="127" y="11" type="curve" smooth="yes"/>
    </contour>
    <component base="O"/>
  </outline>
</glyph>
<glyph name="ae" format="1">
  <advance width="620.0"/>
  <unicode hex="00E6"/>
  <outline>
    <contour>
      <point x="504" y="640" type="curve" smooth="yes"/>
      <point x="504" y="450" type="line"/>
      <point x="324" y="450" type="line"/>
      <point x="324" y="835" type="line"/>
      <point x="425" y="827"/>
      <point x="504" y="743"/>
    </contour>
    <contour>
      <point x="112" y="212" type="curve" smooth="yes"/>
      <point x="112" y="323" type="line" smooth="yes"/>
      <point x="112" y="324" type="line"/>
      <point x="112" y="324" type="line" smooth="yes"/>
      <point x="112" y="427"/>
      <point x="191" y="511"/>
      <point x="292" y="519" type="curve"/>
      <point x="292" y="17" type="line"/>
      <point x="191" y="25"/>
      <point x="112" y="109"/>
    </contour>
    <contour>
      <point x="308" y="-16" type="curve" smooth="yes"/>
      <point x="434" y="-16"/>
      <point x="536" y="86"/>
      <point x="536" y="212" type="curve" smooth="yes"/>
      <point x="536" y="221"/>
      <point x="529" y="228"/>
      <point x="520" y="228" type="curve" smooth="yes"/>
      <point x="511" y="228"/>
      <point x="504" y="221"/>
      <point x="504" y="212" type="curve" smooth="yes"/>
      <point x="504" y="109"/>
      <point x="425" y="25"/>
      <point x="324" y="17" type="curve"/>
      <point x="324" y="418" type="line"/>
      <point x="520" y="418" type="line"/>
      <point x="529" y="418"/>
      <point x="536" y="425"/>
      <point x="536" y="434" type="curve" smooth="yes"/>
      <point x="536" y="640" type="line" smooth="yes"/>
      <point x="536" y="766"/>
      <point x="434" y="868"/>
      <point x="308" y="868" type="curve" smooth="yes"/>
      <point x="182" y="868"/>
      <point x="80" y="766"/>
      <point x="80" y="640" type="curve" smooth="yes"/>
      <point x="80" y="631"/>
      <point x="87" y="624"/>
      <point x="96" y="624" type="curve" smooth="yes"/>
      <point x="105" y="624"/>
      <point x="112" y="631"/>
      <point x="112" y="640" type="curve" smooth="yes"/>
      <point x="112" y="743"/>
      <point x="191" y="827"/>
      <point x="292" y="835" type="curve"/>
      <point x="292" y="551" type="line"/>
      <point x="173" y="543"/>
      <point x="80" y="445"/>
      <point x="80" y="324" type="curve" smooth="yes"/>
      <point x="80" y="323" type="line"/>
      <point x="80" y="323" type="line" smooth="yes"/>
      <point x="80" y="212" type="line" smooth="yes"/>
      <point x="80" y="86"/>
      <point x="182" y="-16"/>
    </contour>
  </outline>
</glyph>
<glyph name="eth" format="1">
  <advance width="616"/>
  <unicode hex="00F0"/>
  <outline>
    <contour>
      <point x="430" y="1020" type="curve"/>
      <point x="580" y="1107" type="line"/>
      <point x="587" y="1111"/>
      <point x="590" y="1122"/>
      <point x="586" y="1129" type="curve" smooth="yes"/>
      <point x="582" y="1135"/>
      <point x="571" y="1138"/>
      <point x="564" y="1134" type="curve"/>
      <point x="414" y="1047" type="line"/>
      <point x="407" y="1043"/>
      <point x="404" y="1032"/>
      <point x="408" y="1026" type="curve" smooth="yes"/>
      <point x="412" y="1019"/>
      <point x="423" y="1016"/>
    </contour>
    <component base="partialdiff"/>
  </outline>
</glyph>
<glyph name="divide" format="1">
  <advance width="616.0"/>
  <unicode hex="00F7"/>
  <outline>
    <contour>
      <point x="520" y="410" type="line"/>
      <point x="528" y="410"/>
      <point x="536" y="418"/>
      <point x="536" y="426" type="curve" smooth="yes"/>
      <point x="536" y="434"/>
      <point x="528" y="442"/>
      <point x="520" y="442" type="curve" smooth="yes"/>
      <point x="96" y="442" type="line" smooth="yes"/>
      <point x="88" y="442"/>
      <point x="80" y="434"/>
      <point x="80" y="426" type="curve" smooth="yes"/>
      <point x="80" y="418"/>
      <point x="88" y="410"/>
      <point x="96" y="410" type="curve" smooth="yes"/>
    </contour>
    <contour>
      <point x="306" y="522" type="curve" smooth="yes"/>
      <point x="319" y="522"/>
      <point x="330" y="533"/>
      <point x="330" y="546" type="curve" smooth="yes"/>
      <point x="330" y="559"/>
      <point x="319" y="570"/>
      <point x="306" y="570" type="curve" smooth="yes"/>
      <point x="293" y="570"/>
      <point x="282" y="559"/>
      <point x="282" y="546" type="curve" smooth="yes"/>
      <point x="282" y="533"/>
      <point x="293" y="522"/>
    </contour>
    <contour>
      <point x="306" y="282" type="curve" smooth="yes"/>
      <point x="319" y="282"/>
      <point x="330" y="293"/>
      <point x="330" y="306" type="curve" smooth="yes"/>
      <point x="330" y="319"/>
      <point x="319" y="330"/>
      <point x="306" y="330" type="curve" smooth="yes"/>
      <point x="293" y="330"/>
      <point x="282" y="319"/>
      <point x="282" y="306" type="curve" smooth="yes"/>
      <point x="282" y="293"/>
      <point x="293" y="282"/>
    </contour>
  </outline>
</glyph>
<glyph name="oslash" format="1">
  <advance width="500.0"/>
  <unicode hex="00F8"/>
  <outline>
    <contour>
      <point x="153" y="45" type="line"/>
      <point x="139" y="4" type="line" smooth="yes"/>
      <point x="136" y="-4"/>
      <point x="139" y="-13"/>
      <point x="147" y="-14" type="curve" smooth="yes"/>
      <point x="155" y="-21"/>
      <point x="167" y="-16"/>
      <point x="171" y="-6" type="curve" smooth="yes"/>
      <point x="181" y="23" type="line"/>
      <point x="478" y="847" type="line" smooth="yes"/>
      <point x="481" y="854"/>
      <point x="476" y="864"/>
      <point x="469" y="867" type="curve" smooth="yes"/>
      <point x="461" y="871"/>
      <point x="451" y="864"/>
      <point x="448" y="857" type="curve" smooth="yes"/>
    </contour>
    <component base="o"/>
  </outline>
</glyph>
<glyph name="dotlessi" format="1">
  <advance width="192.0"/>
  <unicode hex="0131"/>
  <outline>
    <contour>
      <point x="96" y="852" type="curve" smooth="yes"/>
      <point x="88" y="852"/>
      <point x="80" y="844"/>
      <point x="80" y="836" type="curve" smooth="yes"/>
      <point x="80" y="16" type="line" smooth="yes"/>
      <point x="80" y="8"/>
      <point x="88" y="0"/>
      <point x="96" y="0" type="curve" smooth="yes"/>
      <point x="104" y="0"/>
      <point x="112" y="8"/>
      <point x="112" y="16" type="curve" smooth="yes"/>
      <point x="112" y="836" type="line" smooth="yes"/>
      <point x="112" y="844"/>
      <point x="104" y="852"/>
    </contour>
  </outline>
</glyph>
<glyph name="kgreenlandic" format="1">
  <advance width="616"/>
  <unicode hex="0138"/>
  <outline>
    <contour>
      <point x="134" y="452" type="line"/>
      <point x="530" y="824" type="line" smooth="yes"/>
      <point x="538" y="830"/>
      <point x="538" y="840"/>
      <point x="532" y="846" type="curve" smooth="yes"/>
      <point x="526" y="854"/>
      <point x="516" y="854"/>
      <point x="510" y="848" type="curve" smooth="yes"/>
      <point x="112" y="474" type="line"/>
      <point x="112" y="836" type="line" smooth="yes"/>
      <point x="112" y="844"/>
      <point x="104" y="852"/>
      <point x="96" y="852" type="curve" smooth="yes"/>
      <point x="88" y="852"/>
      <point x="80" y="844"/>
      <point x="80" y="836" type="curve" smooth="yes"/>
      <point x="80" y="16" type="line" smooth="yes"/>
      <point x="80" y="8"/>
      <point x="88" y="0"/>
      <point x="96" y="0" type="curve" smooth="yes"/>
      <point x="104" y="0"/>
      <point x="112" y="8"/>
      <point x="112" y="16" type="curve" smooth="yes"/>
      <point x="112" y="428" type="line"/>
      <point x="508" y="6" type="line" smooth="yes"/>
      <point x="512" y="2"/>
      <point x="516" y="0"/>
      <point x="520" y="0" type="curve" smooth="yes"/>
      <point x="524" y="0"/>
      <point x="528" y="2"/>
      <point x="530" y="4" type="curve" smooth="yes"/>
      <point x="538" y="10"/>
      <point x="538" y="20"/>
      <point x="532" y="26" type="curve" smooth="yes"/>
    </contour>
  </outline>
</glyph>
<glyph name="caron" format="1">
  <advance width="648.0"/>
  <unicode hex="02C7"/>
  <outline>
    <contour>
      <point x="312" y="1262" type="curve" smooth="yes"/>
      <point x="316" y="1262"/>
      <point x="320" y="1264"/>
      <point x="324" y="1266" type="curve"/>
      <point x="406" y="1350" type="line" smooth="yes"/>
      <point x="408" y="1352"/>
      <point x="410" y="1356"/>
      <point x="410" y="1360" type="curve" smooth="yes"/>
      <point x="410" y="1370"/>
      <point x="404" y="1376"/>
      <point x="394" y="1376" type="curve" smooth="yes"/>
      <point x="390" y="1376"/>
      <point x="386" y="1374"/>
      <point x="384" y="1372" type="curve" smooth="yes"/>
      <point x="312" y="1300" type="line"/>
      <point x="240" y="1372" type="line" smooth="yes"/>
      <point x="236" y="1374"/>
      <point x="232" y="1376"/>
      <point x="228" y="1376" type="curve" smooth="yes"/>
      <point x="220" y="1376"/>
      <point x="214" y="1370"/>
      <point x="214" y="1360" type="curve" smooth="yes"/>
      <point x="214" y="1356"/>
      <point x="214" y="1352"/>
      <point x="218" y="1350" type="curve"/>
      <point x="300" y="1266" type="line"/>
      <point x="304" y="1264"/>
      <point x="308" y="1262"/>
    </contour>
  </outline>
</glyph>
<glyph name="breve" format="1">
  <advance width="292.0"/>
  <unicode hex="02D8"/>
  <outline>
    <contour>
      <point x="146" y="1262" type="curve" smooth="yes"/>
      <point x="180" y="1262"/>
      <point x="210" y="1290"/>
      <point x="212" y="1326" type="curve"/>
      <point x="212" y="1328" type="line" smooth="yes"/>
      <point x="212" y="1336"/>
      <point x="204" y="1344"/>
      <point x="196" y="1344" type="curve" smooth="yes"/>
      <point x="188" y="1344"/>
      <point x="180" y="1336"/>
      <point x="180" y="1328" type="curve" smooth="yes"/>
      <point x="180" y="1310"/>
      <point x="164" y="1294"/>
      <point x="146" y="1294" type="curve" smooth="yes"/>
      <point x="128" y="1294"/>
      <point x="112" y="1310"/>
      <point x="112" y="1328" type="curve"/>
      <point x="112" y="1336"/>
      <point x="104" y="1344"/>
      <point x="96" y="1344" type="curve" smooth="yes"/>
      <point x="88" y="1344"/>
      <point x="80" y="1336"/>
      <point x="80" y="1328" type="curve" smooth="yes"/>
      <point x="80" y="1292"/>
      <point x="110" y="1262"/>
    </contour>
  </outline>
</glyph>
<glyph name="Delta" format="1">
  <advance width="843.0"/>
  <unicode hex="0394"/>
  <outline>
    <contour>
      <point x="421" y="823" type="line"/>
      <point x="723" y="33" type="line" smooth="yes"/>
      <point x="119" y="33" type="line"/>
    </contour>
    <contour>
      <point x="761" y="23" type="curve" smooth="yes"/>
      <point x="436" y="874" type="line" smooth="yes"/>
      <point x="433" y="884"/>
      <point x="427" y="888"/>
      <point x="421" y="888" type="curve" smooth="yes"/>
      <point x="415" y="888"/>
      <point x="410" y="884"/>
      <point x="406" y="874" type="curve" smooth="yes"/>
      <point x="82" y="23" type="line" smooth="yes"/>
      <point x="81" y="20"/>
      <point x="80" y="18"/>
      <point x="80" y="15" type="curve" smooth="yes"/>
      <point x="80" y="7"/>
      <point x="87" y="1"/>
      <point x="97" y="1" type="curve" smooth="yes"/>
      <point x="746" y="1" type="line" smooth="yes"/>
      <point x="756" y="1"/>
      <point x="763" y="7"/>
      <point x="763" y="15" type="curve" smooth="yes"/>
      <point x="763" y="18"/>
      <point x="762" y="20"/>
    </contour>
  </outline>
</glyph>
<glyph name="mu" format="1">
  <advance width="616.0"/>
  <unicode hex="03BC"/>
  <outline>
    <contour>
      <point x="96" y="852" type="curve" smooth="yes"/>
      <point x="88" y="852"/>
      <point x="80" y="844"/>
      <point x="80" y="836" type="curve" smooth="yes"/>
      <point x="80" y="-314" type="line" smooth="yes"/>
      <point x="80" y="-322"/>
      <point x="88" y="-330"/>
      <point x="96" y="-330" type="curve" smooth="yes"/>
      <point x="104" y="-330"/>
      <point x="112" y="-322"/>
      <point x="112" y="-314" type="curve" smooth="yes"/>
      <point x="112" y="96" type="line"/>
      <point x="152" y="28"/>
      <point x="224" y="-16"/>
      <point x="308" y="-16" type="curve" smooth="yes"/>
      <point x="434" y="-16"/>
      <point x="536" y="86"/>
      <point x="536" y="212" type="curve" smooth="yes"/>
      <point x="536" y="836" type="line" smooth="yes"/>
      <point x="536" y="844"/>
      <point x="528" y="852"/>
      <point x="520" y="852" type="curve" smooth="yes"/>
      <point x="512" y="852"/>
      <point x="504" y="844"/>
      <point x="504" y="836" type="curve" smooth="yes"/>
      <point x="504" y="212" type="line" smooth="yes"/>
      <point x="504" y="104"/>
      <point x="416" y="16"/>
      <point x="308" y="16" type="curve" smooth="yes"/>
      <point x="200" y="16"/>
      <point x="112" y="104"/>
      <point x="112" y="212" type="curve" smooth="yes"/>
      <point x="112" y="836" type="line" smooth="yes"/>
      <point x="112" y="844"/>
      <point x="104" y="852"/>
    </contour>
  </outline>
</glyph>
<glyph name="endash" format="1">
  <advance width="1000.0"/>
  <unicode hex="2013"/>
  <outline>
    <contour>
      <point x="96" y="442" type="line"/>
      <point x="87" y="442"/>
      <point x="80" y="435"/>
      <point x="80" y="426" type="curve" smooth="yes"/>
      <point x="80" y="417"/>
      <point x="87" y="410"/>
      <point x="96" y="410" type="curve" smooth="yes"/>
      <point x="904" y="410" type="line" smooth="yes"/>
      <point x="913" y="410"/>
      <point x="920" y="417"/>
      <point x="920" y="426" type="curve" smooth="yes"/>
      <point x="920" y="435"/>
      <point x="913" y="442"/>
      <point x="904" y="442" type="curve" smooth="yes"/>
    </contour>
  </outline>
</glyph>
<glyph name="emdash" format="1">
  <advance width="2000.0"/>
  <unicode hex="2014"/>
  <outline>
    <contour>
      <point x="96" y="442" type="line"/>
      <point x="87" y="442"/>
      <point x="80" y="435"/>
      <point x="80" y="426" type="curve" smooth="yes"/>
      <point x="80" y="417"/>
      <point x="87" y="410"/>
      <point x="96" y="410" type="curve" smooth="yes"/>
      <point x="1904" y="410" type="line" smooth="yes"/>
      <point x="1913" y="410"/>
      <point x="1920" y="417"/>
      <point x="1920" y="426" type="curve" smooth="yes"/>
      <point x="1920" y="435"/>
      <point x="1913" y="442"/>
      <point x="1904" y="442" type="curve" smooth="yes"/>
    </contour>
  </outline>
</glyph>
<glyph name="daggerdbl" format="1">
  <advance width="612.0"/>
  <unicode hex="2021"/>
  <outline>
    <contour>
      <point x="322" y="16" type="curve" smooth="yes"/>
      <point x="322" y="703" type="line"/>
      <point x="520" y="703" type="line"/>
      <point x="528" y="703"/>
      <point x="536" y="711"/>
      <point x="536" y="719" type="curve" smooth="yes"/>
      <point x="536" y="727"/>
      <point x="528" y="735"/>
      <point x="520" y="735" type="curve" smooth="yes"/>
      <point x="322" y="735" type="line"/>
      <point x="322" y="958" type="line"/>
      <point x="516" y="958" type="line" smooth="yes"/>
      <point x="524" y="958"/>
      <point x="532" y="966"/>
      <point x="532" y="974" type="curve" smooth="yes"/>
      <point x="532" y="984"/>
      <point x="524" y="990"/>
      <point x="516" y="990" type="curve"/>
      <point x="322" y="990" type="line"/>
      <point x="322" y="1184" type="line" smooth="yes"/>
      <point x="322" y="1194"/>
      <point x="314" y="1200"/>
      <point x="306" y="1200" type="curve" smooth="yes"/>
      <point x="298" y="1200"/>
      <point x="290" y="1194"/>
      <point x="290" y="1184" type="curve" smooth="yes"/>
      <point x="290" y="990" type="line"/>
      <point x="96" y="990" type="line" smooth="yes"/>
      <point x="88" y="990"/>
      <point x="80" y="984"/>
      <point x="80" y="974" type="curve" smooth="yes"/>
      <point x="80" y="966"/>
      <point x="88" y="958"/>
      <point x="96" y="958" type="curve" smooth="yes"/>
      <point x="290" y="958" type="line"/>
      <point x="290" y="735" type="line"/>
      <point x="96" y="735" type="line" smooth="yes"/>
      <point x="88" y="735"/>
      <point x="80" y="727"/>
      <point x="80" y="719" type="curve" smooth="yes"/>
      <point x="80" y="711"/>
      <point x="88" y="703"/>
      <point x="96" y="703" type="curve" smooth="yes"/>
      <point x="290" y="703" type="line"/>
      <point x="290" y="16" type="line" smooth="yes"/>
      <point x="290" y="8"/>
      <point x="298" y="0"/>
      <point x="306" y="0" type="curve" smooth="yes"/>
      <point x="314" y="0"/>
      <point x="322" y="8"/>
    </contour>
  </outline>
</glyph>
<glyph name="bullet" format="1">
  <advance width="374.0"/>
  <unicode hex="2022"/>
  <outline>
    <contour>
      <point x="187" y="319" type="curve" smooth="yes"/>
      <point x="245" y="319"/>
      <point x="294" y="366"/>
      <point x="294" y="426" type="curve" smooth="yes"/>
      <point x="294" y="484"/>
      <point x="245" y="533"/>
      <point x="187" y="533" type="curve" smooth="yes"/>
      <point x="127" y="533"/>
      <point x="80" y="484"/>
      <point x="80" y="426" type="curve" smooth="yes"/>
      <point x="80" y="366"/>
      <point x="127" y="319"/>
    </contour>
  </outline>
</glyph>
<glyph name="perthousand" format="1">
  <advance width="916.0"/>
  <unicode hex="2030"/>
  <outline>
    <contour>
      <point x="96" y="0" type="curve" smooth="yes"/>
      <point x="102" y="0"/>
      <point x="106" y="2"/>
      <point x="110" y="8" type="curve" smooth="yes"/>
      <point x="534" y="644" type="line" smooth="yes"/>
      <point x="536" y="646"/>
      <point x="536" y="650"/>
      <point x="536" y="652" type="curve" smooth="yes"/>
      <point x="536" y="660"/>
      <point x="528" y="670"/>
      <point x="520" y="670" type="curve" smooth="yes"/>
      <point x="514" y="670"/>
      <point x="510" y="666"/>
      <point x="506" y="662" type="curve" smooth="yes"/>
      <point x="82" y="24" type="line" smooth="yes"/>
      <point x="80" y="22"/>
      <point x="80" y="20"/>
      <point x="80" y="16" type="curve" smooth="yes"/>
      <point x="80" y="10"/>
      <point x="84" y="0"/>
    </contour>
    <contour>
      <point x="202" y="424" type="curve" smooth="yes"/>
      <point x="270" y="424"/>
      <point x="324" y="480"/>
      <point x="324" y="546" type="curve" smooth="yes"/>
      <point x="324" y="614"/>
      <point x="270" y="668"/>
      <point x="202" y="668" type="curve" smooth="yes"/>
      <point x="134" y="668"/>
      <point x="80" y="614"/>
      <point x="80" y="546" type="curve" smooth="yes"/>
      <point x="80" y="480"/>
      <point x="134" y="424"/>
    </contour>
    <contour>
      <point x="202" y="636" type="curve" smooth="yes"/>
      <point x="252" y="636"/>
      <point x="292" y="596"/>
      <point x="292" y="546" type="curve" smooth="yes"/>
      <point x="292" y="498"/>
      <point x="252" y="456"/>
      <point x="202" y="456" type="curve" smooth="yes"/>
      <point x="152" y="456"/>
      <point x="112" y="498"/>
      <point x="112" y="546" type="curve" smooth="yes"/>
      <point x="112" y="596"/>
      <point x="152" y="636"/>
    </contour>
    <contour>
      <point x="414" y="-16" type="curve" smooth="yes"/>
      <point x="482" y="-16"/>
      <point x="536" y="38"/>
      <point x="536" y="106" type="curve" smooth="yes"/>
      <point x="536" y="174"/>
      <point x="482" y="228"/>
      <point x="414" y="228" type="curve" smooth="yes"/>
      <point x="346" y="228"/>
      <point x="292" y="174"/>
      <point x="292" y="106" type="curve" smooth="yes"/>
      <point x="292" y="38"/>
      <point x="346" y="-16"/>
    </contour>
    <contour>
      <point x="414" y="196" type="curve" smooth="yes"/>
      <point x="464" y="196"/>
      <point x="504" y="156"/>
      <point x="504" y="106" type="curve" smooth="yes"/>
      <point x="504" y="56"/>
      <point x="464" y="16"/>
      <point x="414" y="16" type="curve" smooth="yes"/>
      <point x="364" y="16"/>
      <point x="324" y="56"/>
      <point x="324" y="106" type="curve" smooth="yes"/>
      <point x="324" y="156"/>
      <point x="364" y="196"/>
    </contour>
    <contour>
      <point x="714" y="-16" type="curve" smooth="yes"/>
      <point x="782" y="-16"/>
      <point x="836" y="38"/>
      <point x="836" y="106" type="curve" smooth="yes"/>
      <point x="836" y="174"/>
      <point x="782" y="228"/>
      <point x="714" y="228" type="curve" smooth="yes"/>
      <point x="646" y="228"/>
      <point x="592" y="174"/>
      <point x="592" y="106" type="curve" smooth="yes"/>
      <point x="592" y="38"/>
      <point x="646" y="-16"/>
    </contour>
    <contour>
      <point x="714" y="196" type="curve" smooth="yes"/>
      <point x="764" y="196"/>
      <point x="804" y="156"/>
      <point x="804" y="106" type="curve" smooth="yes"/>
      <point x="804" y="56"/>
      <point x="764" y="16"/>
      <point x="714" y="16" type="curve" smooth="yes"/>
      <point x="664" y="16"/>
      <point x="624" y="56"/>
      <point x="624" y="106" type="curve" smooth="yes"/>
      <point x="624" y="156"/>
      <point x="664" y="196"/>
    </contour>
  </outline>
</glyph>
<glyph name="guilsinglright" format="1">
  <advance width="284.0"/>
  <unicode hex="203A"/>
  <outline>
    <contour>
      <point x="60" y="560" type="curve" smooth="yes"/>
      <point x="60" y="556"/>
      <point x="62" y="552"/>
      <point x="64" y="548" type="curve"/>
      <point x="186" y="428" type="line"/>
      <point x="64" y="308" type="line" smooth="yes"/>
      <point x="60" y="304"/>
      <point x="60" y="300"/>
      <point x="60" y="296" type="curve" smooth="yes"/>
      <point x="60" y="288"/>
      <point x="64" y="280"/>
      <point x="74" y="280" type="curve" smooth="yes"/>
      <point x="78" y="280"/>
      <point x="84" y="280"/>
      <point x="88" y="284" type="curve" smooth="yes"/>
      <point x="218" y="416" type="line" smooth="yes"/>
      <point x="222" y="420"/>
      <point x="224" y="424"/>
      <point x="224" y="428" type="curve" smooth="yes"/>
      <point x="224" y="432"/>
      <point x="222" y="436"/>
      <point x="218" y="440" type="curve" smooth="yes"/>
      <point x="88" y="572" type="line"/>
      <point x="84" y="574"/>
      <point x="78" y="576"/>
      <point x="74" y="576" type="curve" smooth="yes"/>
      <point x="66" y="576"/>
      <point x="60" y="568"/>
    </contour>
  </outline>
</glyph>
<glyph name="minus" format="1">
  <advance width="612.0"/>
  <unicode hex="2212"/>
  <outline>
    <contour>
      <point x="516" y="410" type="line"/>
      <point x="524" y="410"/>
      <point x="532" y="418"/>
      <point x="532" y="426" type="curve" smooth="yes"/>
      <point x="532" y="436"/>
      <point x="524" y="442"/>
      <point x="516" y="442" type="curve"/>
      <point x="96" y="442" type="line" smooth="yes"/>
      <point x="88" y="442"/>
      <point x="80" y="436"/>
      <point x="80" y="426" type="curve" smooth="yes"/>
      <point x="80" y="418"/>
      <point x="88" y="410"/>
      <point x="96" y="410" type="curve"/>
    </contour>
  </outline>
</glyph>
<glyph name="notequal" format="1">
  <advance width="616.0"/>
  <unicode hex="2260"/>
  <outline>
    <contour>
      <point x="361" y="632" type="line"/>
      <point x="362" y="640"/>
      <point x="355" y="649"/>
      <point x="348" y="651" type="curve" smooth="yes"/>
      <point x="338" y="652"/>
      <point x="330" y="645"/>
      <point x="329" y="638" type="curve"/>
      <point x="255" y="220" type="line" smooth="yes"/>
      <point x="254" y="212"/>
      <point x="259" y="203"/>
      <point x="268" y="201" type="curve" smooth="yes"/>
      <point x="276" y="200"/>
      <point x="286" y="207"/>
      <point x="287" y="214" type="curve"/>
    </contour>
    <component base="equal"/>
  </outline>
</glyph>
<glyph name="greaterequal" format="1">
  <advance width="616.0"/>
  <unicode hex="2265"/>
  <outline>
    <contour>
      <point x="79" y="81"/>
      <point x="80" y="77"/>
      <point x="83" y="74" type="curve" smooth="yes"/>
      <point x="86" y="70"/>
      <point x="90" y="68"/>
      <point x="95" y="68" type="curve" smooth="yes"/>
      <point x="98" y="68"/>
      <point x="102" y="69"/>
      <point x="105" y="72" type="curve" smooth="yes"/>
      <point x="529" y="414" type="line" smooth="yes"/>
      <point x="534" y="417"/>
      <point x="536" y="422"/>
      <point x="536" y="426" type="curve" smooth="yes"/>
      <point x="536" y="431"/>
      <point x="534" y="435"/>
      <point x="529" y="438" type="curve" smooth="yes"/>
      <point x="105" y="778" type="line" smooth="yes"/>
      <point x="102" y="781"/>
      <point x="98" y="782"/>
      <point x="95" y="782" type="curve" smooth="yes"/>
      <point x="90" y="782"/>
      <point x="86" y="780"/>
      <point x="83" y="776" type="curve" smooth="yes"/>
      <point x="80" y="773"/>
      <point x="79" y="769"/>
      <point x="79" y="766" type="curve" smooth="yes"/>
      <point x="79" y="761"/>
      <point x="81" y="757"/>
      <point x="85" y="754" type="curve" smooth="yes"/>
      <point x="494" y="426" type="line"/>
      <point x="85" y="96" type="line" smooth="yes"/>
      <point x="81" y="93"/>
      <point x="79" y="89"/>
      <point x="79" y="84" type="curve" smooth="yes"/>
    </contour>
    <contour>
      <point x="99" y="-16" type="curve" smooth="yes"/>
      <point x="519" y="-16" type="line"/>
      <point x="527" y="-16"/>
      <point x="535" y="-8"/>
      <point x="535" y="0" type="curve" smooth="yes"/>
      <point x="535" y="10"/>
      <point x="527" y="16"/>
      <point x="519" y="16" type="curve" smooth="yes"/>
      <point x="99" y="16" type="line"/>
      <point x="91" y="16"/>
      <point x="83" y="10"/>
      <point x="83" y="0" type="curve" smooth="yes"/>
      <point x="83" y="-8"/>
      <point x="91" y="-16"/>
    </contour>
  </outline>
</glyph>
<glyph name="eight.sup" format="1">
  <advance width="404.0"/>
  <outline>
    <contour>
      <point x="202" y="584" type="curve" smooth="yes"/>
      <point x="269" y="584"/>
      <point x="324" y="639"/>
      <point x="324" y="706" type="curve" smooth="yes"/>
      <point x="324" y="846" type="line" smooth="yes"/>
      <point x="324" y="892"/>
      <point x="299" y="931"/>
      <point x="262" y="952" type="curve"/>
      <point x="299" y="973"/>
      <point x="324" y="1013"/>
      <point x="324" y="1058" type="curve" smooth="yes"/>
      <point x="324" y="1110" type="line" smooth="yes"/>
      <point x="324" y="1178"/>
      <point x="269" y="1232"/>
      <point x="202" y="1232" type="curve" smooth="yes"/>
      <point x="135" y="1232"/>
      <point x="80" y="1178"/>
      <point x="80" y="1110" type="curve" smooth="yes"/>
      <point x="80" y="1058" type="line" smooth="yes"/>
      <point x="80" y="1013"/>
      <point x="105" y="973"/>
      <point x="142" y="952" type="curve"/>
      <point x="105" y="931"/>
      <point x="80" y="892"/>
      <point x="80" y="846" type="curve" smooth="yes"/>
      <point x="80" y="706" type="line" smooth="yes"/>
      <point x="80" y="639"/>
      <point x="135" y="584"/>
    </contour>
    <contour>
      <point x="112" y="1110" type="line"/>
      <point x="112" y="1160"/>
      <point x="153" y="1200"/>
      <point x="202" y="1200" type="curve" smooth="yes"/>
      <point x="251" y="1200"/>
      <point x="292" y="1160"/>
      <point x="292" y="1110" type="curve" smooth="yes"/>
      <point x="292" y="1058" type="line" smooth="yes"/>
      <point x="292" y="1009"/>
      <point x="251" y="968"/>
      <point x="202" y="968" type="curve" smooth="yes"/>
      <point x="153" y="968"/>
      <point x="112" y="1009"/>
      <point x="112" y="1058" type="curve" smooth="yes"/>
    </contour>
    <contour>
      <point x="292" y="706" type="line"/>
      <point x="292" y="657"/>
      <point x="251" y="616"/>
      <point x="202" y="616" type="curve" smooth="yes"/>
      <point x="153" y="616"/>
      <point x="112" y="657"/>
      <point x="112" y="706" type="curve" smooth="yes"/>
      <point x="112" y="846" type="line" smooth="yes"/>
      <point x="112" y="896"/>
      <point x="153" y="936"/>
      <point x="202" y="936" type="curve" smooth="yes"/>
      <point x="251" y="936"/>
      <point x="292" y="896"/>
      <point x="292" y="846" type="curve" smooth="yes"/>
    </contour>
  </outline>
</glyph>
<glyph name="ezh" format="1">
  <advance width="618"/>
  <outline>
    <contour>
      <point x="308" y="-212" type="curve" smooth="yes"/>
      <point x="434" y="-212"/>
      <point x="536" y="-110"/>
      <point x="536" y="16" type="curve" smooth="yes"/>
      <point x="536" y="320" type="line" smooth="yes"/>
      <point x="536" y="436"/>
      <point x="449" y="532"/>
      <point x="337" y="546" type="curve"/>
      <point x="533" y="827" type="line" smooth="yes"/>
      <point x="543" y="841"/>
      <point x="537" y="852"/>
      <point x="520" y="852" type="curve" smooth="yes"/>
      <point x="99" y="852" type="line" smooth="yes"/>
      <point x="90" y="852"/>
      <point x="83" y="845"/>
      <point x="83" y="836" type="curve" smooth="yes"/>
      <point x="83" y="827"/>
      <point x="90" y="820"/>
      <point x="99" y="820" type="curve" smooth="yes"/>
      <point x="490" y="820" type="line"/>
      <point x="295" y="541" type="line" smooth="yes"/>
      <point x="294" y="539"/>
      <point x="293" y="538"/>
      <point x="293" y="536" type="curve"/>
      <point x="292" y="535"/>
      <point x="292" y="533"/>
      <point x="292" y="532" type="curve" smooth="yes"/>
      <point x="292" y="530"/>
      <point x="293" y="528"/>
      <point x="293" y="526" type="curve"/>
      <point x="295" y="523"/>
      <point x="296" y="521"/>
      <point x="299" y="519" type="curve" smooth="yes"/>
      <point x="301" y="518"/>
      <point x="302" y="517"/>
      <point x="304" y="517" type="curve"/>
      <point x="305" y="516"/>
      <point x="307" y="516"/>
      <point x="308" y="516" type="curve"/>
      <point x="416" y="516"/>
      <point x="504" y="428"/>
      <point x="504" y="320" type="curve" smooth="yes"/>
      <point x="504" y="16" type="line" smooth="yes"/>
      <point x="504" y="-92"/>
      <point x="416" y="-180"/>
      <point x="308" y="-180" type="curve" smooth="yes"/>
      <point x="200" y="-180"/>
      <point x="112" y="-92"/>
      <point x="112" y="16" type="curve"/>
      <point x="112" y="24"/>
      <point x="104" y="32"/>
      <point x="96" y="32" type="curve" smooth="yes"/>
      <point x="88" y="32"/>
      <point x="80" y="24"/>
      <point x="80" y="16" type="curve"/>
      <point x="80" y="-110"/>
      <point x="182" y="-212"/>
    </contour>
  </outline>
</glyph>
<glyph name="four.sup" format="1">
  <advance width="404.0"/>
  <outline>
    <contour>
      <point x="308" y="584" type="curve" smooth="yes"/>
      <point x="317" y="584"/>
      <point x="324" y="591"/>
      <point x="324" y="600" type="curve" smooth="yes"/>
      <point x="324" y="1184" type="line" smooth="yes"/>
      <point x="324" y="1193"/>
      <point x="317" y="1200"/>
      <point x="308" y="1200" type="curve" smooth="yes"/>
      <point x="202" y="1200" type="line" smooth="yes"/>
      <point x="194" y="1200"/>
      <point x="188" y="1195"/>
      <point x="186" y="1188" type="curve" smooth="yes"/>
      <point x="80" y="738" type="line" smooth="yes"/>
      <point x="78" y="728"/>
      <point x="86" y="718"/>
      <point x="96" y="718" type="curve" smooth="yes"/>
      <point x="292" y="718" type="line"/>
      <point x="292" y="600" type="line" smooth="yes"/>
      <point x="292" y="591"/>
      <point x="299" y="584"/>
    </contour>
    <contour>
      <point x="292" y="1168" type="line"/>
      <point x="292" y="750" type="line"/>
      <point x="117" y="750" type="line"/>
      <point x="215" y="1168" type="line"/>
    </contour>
  </outline>
</glyph>
<glyph name="nine.sup" format="1">
  <advance width="404.0"/>
  <outline>
    <contour>
      <point x="202" y="830" type="curve" smooth="yes"/>
      <point x="153" y="830"/>
      <point x="112" y="871"/>
      <point x="112" y="920" type="curve" smooth="yes"/>
      <point x="112" y="1110" type="line" smooth="yes"/>
      <point x="112" y="1160"/>
      <point x="153" y="1200"/>
      <point x="202" y="1200" type="curve" smooth="yes"/>
      <point x="251" y="1200"/>
      <point x="292" y="1160"/>
      <point x="292" y="1110" type="curve" smooth="yes"/>
      <point x="292" y="920" type="line" smooth="yes"/>
      <point x="292" y="871"/>
      <point x="251" y="830"/>
    </contour>
    <contour>
      <point x="202" y="584" type="curve" smooth="yes"/>
      <point x="269" y="584"/>
      <point x="324" y="639"/>
      <point x="324" y="706" type="curve" smooth="yes"/>
      <point x="324" y="1110" type="line" smooth="yes"/>
      <point x="324" y="1178"/>
      <point x="269" y="1232"/>
      <point x="202" y="1232" type="curve" smooth="yes"/>
      <point x="135" y="1232"/>
      <point x="80" y="1178"/>
      <point x="80" y="1110" type="curve" smooth="yes"/>
      <point x="80" y="920" type="line" smooth="yes"/>
      <point x="80" y="853"/>
      <point x="135" y="798"/>
      <point x="202" y="798" type="curve" smooth="yes"/>
      <point x="238" y="798"/>
      <point x="270" y="813"/>
      <point x="292" y="838" type="curve"/>
      <point x="292" y="706" type="line" smooth="yes"/>
      <point x="292" y="657"/>
      <point x="251" y="616"/>
      <point x="202" y="616" type="curve" smooth="yes"/>
      <point x="153" y="616"/>
      <point x="112" y="657"/>
      <point x="112" y="706" type="curve" smooth="yes"/>
      <point x="112" y="715"/>
      <point x="105" y="722"/>
      <point x="96" y="722" type="curve" smooth="yes"/>
      <point x="87" y="722"/>
      <point x="80" y="715"/>
      <point x="80" y="706" type="curve" smooth="yes"/>
      <point x="80" y="639"/>
      <point x="135" y="584"/>
    </contour>
  </outline>
</glyph>
<glyph name="one.oldstyle" format="1">
  <advance width="616.0"/>
  <outline>
    <contour>
      <point x="522" y="32" type="curve"/>
      <point x="326" y="32" type="line"/>
      <point x="326" y="868" type="line" smooth="yes"/>
      <point x="326" y="876"/>
      <point x="318" y="884"/>
      <point x="308" y="884" type="curve" smooth="yes"/>
      <point x="306" y="884"/>
      <point x="302" y="882"/>
      <point x="298" y="880" type="curve" smooth="yes"/>
      <point x="82" y="664" type="line" smooth="yes"/>
      <point x="78" y="660"/>
      <point x="78" y="654"/>
      <point x="78" y="650" type="curve" smooth="yes"/>
      <point x="78" y="642"/>
      <point x="84" y="636"/>
      <point x="92" y="636" type="curve" smooth="yes"/>
      <point x="96" y="636"/>
      <point x="102" y="636"/>
      <point x="106" y="640" type="curve" smooth="yes"/>
      <point x="294" y="830" type="line"/>
      <point x="294" y="32" type="line"/>
      <point x="98" y="32" type="line" smooth="yes"/>
      <point x="90" y="32"/>
      <point x="82" y="24"/>
      <point x="82" y="16" type="curve" smooth="yes"/>
      <point x="82" y="8"/>
      <point x="90" y="0"/>
      <point x="98" y="0" type="curve" smooth="yes"/>
      <point x="522" y="0" type="line" smooth="yes"/>
      <point x="530" y="0"/>
      <point x="538" y="8"/>
      <point x="538" y="16" type="curve" smooth="yes"/>
      <point x="538" y="24"/>
      <point x="530" y="32"/>
    </contour>
  </outline>
</glyph>
<glyph name="one.sup" format="1">
  <advance width="405.0"/>
  <outline>
    <contour>
      <point x="97" y="593" type="curve" smooth="yes"/>
      <point x="309" y="593" type="line" smooth="yes"/>
      <point x="318" y="593"/>
      <point x="325" y="600"/>
      <point x="325" y="609" type="curve" smooth="yes"/>
      <point x="325" y="618"/>
      <point x="318" y="625"/>
      <point x="309" y="625" type="curve" smooth="yes"/>
      <point x="219" y="625" type="line"/>
      <point x="219" y="1202" type="line" smooth="yes"/>
      <point x="219" y="1214"/>
      <point x="200" y="1222"/>
      <point x="192" y="1213" type="curve" smooth="yes"/>
      <point x="84" y="1105" type="line" smooth="yes"/>
      <point x="78" y="1099"/>
      <point x="78" y="1089"/>
      <point x="84" y="1083" type="curve" smooth="yes"/>
      <point x="90" y="1077"/>
      <point x="100" y="1077"/>
      <point x="106" y="1083" type="curve" smooth="yes"/>
      <point x="187" y="1164" type="line"/>
      <point x="187" y="625" type="line"/>
      <point x="97" y="625" type="line" smooth="yes"/>
      <point x="88" y="625"/>
      <point x="81" y="618"/>
      <point x="81" y="609" type="curve" smooth="yes"/>
      <point x="81" y="600"/>
      <point x="88" y="593"/>
    </contour>
  </outline>
</glyph>
<glyph name="seven.sup" format="1">
  <advance width="404"/>
  <outline>
    <contour>
      <point x="199" y="584" type="curve" smooth="yes"/>
      <point x="208" y="583"/>
      <point x="216" y="589"/>
      <point x="218" y="597" type="curve" smooth="yes"/>
      <point x="324" y="1181" type="line" smooth="yes"/>
      <point x="325" y="1191"/>
      <point x="318" y="1200"/>
      <point x="308" y="1200" type="curve" smooth="yes"/>
      <point x="96" y="1200" type="line" smooth="yes"/>
      <point x="87" y="1200"/>
      <point x="80" y="1193"/>
      <point x="80" y="1184" type="curve" smooth="yes"/>
      <point x="80" y="1175"/>
      <point x="87" y="1168"/>
      <point x="96" y="1168" type="curve" smooth="yes"/>
      <point x="289" y="1168" type="line"/>
      <point x="186" y="603" type="line" smooth="yes"/>
      <point x="185" y="594"/>
      <point x="191" y="586"/>
    </contour>
  </outline>
</glyph>
<glyph name="six.sup" format="1">
  <advance width="404.0"/>
  <outline>
    <contour>
      <point x="324" y="706" type="curve" smooth="yes"/>
      <point x="324" y="866" type="line" smooth="yes"/>
      <point x="324" y="934"/>
      <point x="269" y="988"/>
      <point x="202" y="988" type="curve" smooth="yes"/>
      <point x="166" y="988"/>
      <point x="134" y="973"/>
      <point x="112" y="948" type="curve"/>
      <point x="112" y="1110" type="line" smooth="yes"/>
      <point x="112" y="1160"/>
      <point x="153" y="1200"/>
      <point x="202" y="1200" type="curve" smooth="yes"/>
      <point x="251" y="1200"/>
      <point x="292" y="1160"/>
      <point x="292" y="1110" type="curve" smooth="yes"/>
      <point x="292" y="1101"/>
      <point x="299" y="1094"/>
      <point x="308" y="1094" type="curve" smooth="yes"/>
      <point x="317" y="1094"/>
      <point x="324" y="1101"/>
      <point x="324" y="1110" type="curve" smooth="yes"/>
      <point x="324" y="1178"/>
      <point x="269" y="1232"/>
      <point x="202" y="1232" type="curve" smooth="yes"/>
      <point x="135" y="1232"/>
      <point x="80" y="1178"/>
      <point x="80" y="1110" type="curve" smooth="yes"/>
      <point x="80" y="706" type="line" smooth="yes"/>
      <point x="80" y="639"/>
      <point x="135" y="584"/>
      <point x="202" y="584" type="curve" smooth="yes"/>
      <point x="269" y="584"/>
      <point x="324" y="639"/>
    </contour>
    <contour>
      <point x="202" y="616" type="curve" smooth="yes"/>
      <point x="153" y="616"/>
      <point x="112" y="657"/>
      <point x="112" y="706" type="curve" smooth="yes"/>
      <point x="112" y="866" type="line" smooth="yes"/>
      <point x="112" y="916"/>
      <point x="153" y="956"/>
      <point x="202" y="956" type="curve" smooth="yes"/>
      <point x="251" y="956"/>
      <point x="292" y="916"/>
      <point x="292" y="866" type="curve" smooth="yes"/>
      <point x="292" y="706" type="line" smooth="yes"/>
      <point x="292" y="657"/>
      <point x="251" y="616"/>
    </contour>
  </outline>
</glyph>
<glyph name="three.sup" format="1">
  <advance width="404.0"/>
  <outline>
    <contour>
      <point x="202" y="584" type="curve" smooth="yes"/>
      <point x="269" y="584"/>
      <point x="324" y="639"/>
      <point x="324" y="706" type="curve" smooth="yes"/>
      <point x="324" y="851" type="line" smooth="yes"/>
      <point x="324" y="897"/>
      <point x="299" y="936"/>
      <point x="262" y="957" type="curve"/>
      <point x="299" y="978"/>
      <point x="324" y="1018"/>
      <point x="324" y="1063" type="curve" smooth="yes"/>
      <point x="324" y="1110" type="line" smooth="yes"/>
      <point x="324" y="1178"/>
      <point x="269" y="1232"/>
      <point x="202" y="1232" type="curve" smooth="yes"/>
      <point x="135" y="1232"/>
      <point x="80" y="1178"/>
      <point x="80" y="1110" type="curve" smooth="yes"/>
      <point x="80" y="1101"/>
      <point x="87" y="1094"/>
      <point x="96" y="1094" type="curve" smooth="yes"/>
      <point x="105" y="1094"/>
      <point x="112" y="1101"/>
      <point x="112" y="1110" type="curve" smooth="yes"/>
      <point x="112" y="1160"/>
      <point x="153" y="1200"/>
      <point x="202" y="1200" type="curve" smooth="yes"/>
      <point x="251" y="1200"/>
      <point x="292" y="1160"/>
      <point x="292" y="1110" type="curve" smooth="yes"/>
      <point x="292" y="1063" type="line" smooth="yes"/>
      <point x="292" y="1014"/>
      <point x="251" y="973"/>
      <point x="202" y="973" type="curve" smooth="yes"/>
      <point x="193" y="973"/>
      <point x="186" y="966"/>
      <point x="186" y="957" type="curve" smooth="yes"/>
      <point x="186" y="948"/>
      <point x="193" y="941"/>
      <point x="202" y="941" type="curve" smooth="yes"/>
      <point x="251" y="941"/>
      <point x="292" y="901"/>
      <point x="292" y="851" type="curve" smooth="yes"/>
      <point x="292" y="706" type="line" smooth="yes"/>
      <point x="292" y="657"/>
      <point x="251" y="616"/>
      <point x="202" y="616" type="curve" smooth="yes"/>
      <point x="153" y="616"/>
      <point x="112" y="657"/>
      <point x="112" y="706" type="curve" smooth="yes"/>
      <point x="112" y="715"/>
      <point x="105" y="722"/>
      <point x="96" y="722" type="curve" smooth="yes"/>
      <point x="87" y="722"/>
      <point x="80" y="715"/>
      <point x="80" y="706" type="curve" smooth="yes"/>
      <point x="80" y="639"/>
      <point x="135" y="584"/>
    </contour>
  </outline>
</glyph>
<glyph name="two.oldstyle" format="1">
  <advance width="616.0"/>
  <outline>
    <contour>
      <point x="308" y="316" type="curve" smooth="yes"/>
      <point x="434" y="316"/>
      <point x="536" y="418"/>
      <point x="536" y="544" type="curve" smooth="yes"/>
      <point x="536" y="640" type="line" smooth="yes"/>
      <point x="536" y="766"/>
      <point x="434" y="868"/>
      <point x="308" y="868" type="curve" smooth="yes"/>
      <point x="182" y="868"/>
      <point x="80" y="766"/>
      <point x="80" y="640" type="curve" smooth="yes"/>
      <point x="80" y="632"/>
      <point x="88" y="624"/>
      <point x="96" y="624" type="curve" smooth="yes"/>
      <point x="104" y="624"/>
      <point x="112" y="632"/>
      <point x="112" y="640" type="curve" smooth="yes"/>
      <point x="112" y="748"/>
      <point x="200" y="836"/>
      <point x="308" y="836" type="curve" smooth="yes"/>
      <point x="416" y="836"/>
      <point x="504" y="748"/>
      <point x="504" y="640" type="curve" smooth="yes"/>
      <point x="504" y="544" type="line" smooth="yes"/>
      <point x="504" y="436"/>
      <point x="416" y="348"/>
      <point x="308" y="348" type="curve" smooth="yes"/>
      <point x="182" y="348"/>
      <point x="80" y="246"/>
      <point x="80" y="120" type="curve" smooth="yes"/>
      <point x="80" y="16" type="line" smooth="yes"/>
      <point x="80" y="6"/>
      <point x="86" y="0"/>
      <point x="96" y="0" type="curve" smooth="yes"/>
      <point x="520" y="0" type="line" smooth="yes"/>
      <point x="528" y="0"/>
      <point x="536" y="8"/>
      <point x="536" y="16" type="curve" smooth="yes"/>
      <point x="536" y="24"/>
      <point x="528" y="32"/>
      <point x="520" y="32" type="curve" smooth="yes"/>
      <point x="112" y="32" type="line"/>
      <point x="112" y="120" type="line" smooth="yes"/>
      <point x="112" y="228"/>
      <point x="200" y="316"/>
    </contour>
  </outline>
</glyph>
<glyph name="two.sup" format="1">
  <advance width="404.0"/>
  <outline>
    <contour>
      <point x="96" y="600" type="curve" smooth="yes"/>
      <point x="308" y="600" type="line" smooth="yes"/>
      <point x="317" y="600"/>
      <point x="324" y="607"/>
      <point x="324" y="616" type="curve" smooth="yes"/>
      <point x="324" y="625"/>
      <point x="317" y="632"/>
      <point x="308" y="632" type="curve" smooth="yes"/>
      <point x="112" y="632" type="line"/>
      <point x="112" y="753" type="line" smooth="yes"/>
      <point x="112" y="803"/>
      <point x="153" y="843"/>
      <point x="202" y="843" type="curve" smooth="yes"/>
      <point x="269" y="843"/>
      <point x="324" y="898"/>
      <point x="324" y="965" type="curve" smooth="yes"/>
      <point x="324" y="1110" type="line" smooth="yes"/>
      <point x="324" y="1178"/>
      <point x="269" y="1232"/>
      <point x="202" y="1232" type="curve" smooth="yes"/>
      <point x="135" y="1232"/>
      <point x="80" y="1178"/>
      <point x="80" y="1110" type="curve" smooth="yes"/>
      <point x="80" y="1101"/>
      <point x="87" y="1094"/>
      <point x="96" y="1094" type="curve" smooth="yes"/>
      <point x="105" y="1094"/>
      <point x="112" y="1101"/>
      <point x="112" y="1110" type="curve" smooth="yes"/>
      <point x="112" y="1160"/>
      <point x="153" y="1200"/>
      <point x="202" y="1200" type="curve" smooth="yes"/>
      <point x="251" y="1200"/>
      <point x="292" y="1160"/>
      <point x="292" y="1110" type="curve" smooth="yes"/>
      <point x="292" y="965" type="line" smooth="yes"/>
      <point x="292" y="916"/>
      <point x="251" y="875"/>
      <point x="202" y="875" type="curve" smooth="yes"/>
      <point x="135" y="875"/>
      <point x="80" y="821"/>
      <point x="80" y="753" type="curve" smooth="yes"/>
      <point x="80" y="616" type="line" smooth="yes"/>
      <point x="80" y="607"/>
      <point x="87" y="600"/>
    </contour>
  </outline>
</glyph>
<glyph name="zero.sup" format="1">
  <advance width="404.0"/>
  <outline>
    <contour>
      <point x="202" y="1232" type="curve" smooth="yes"/>
      <point x="135" y="1232"/>
      <point x="80" y="1178"/>
      <point x="80" y="1110" type="curve" smooth="yes"/>
      <point x="80" y="706" type="line" smooth="yes"/>
      <point x="80" y="639"/>
      <point x="135" y="584"/>
      <point x="202" y="584" type="curve" smooth="yes"/>
      <point x="269" y="584"/>
      <point x="324" y="639"/>
      <point x="324" y="706" type="curve" smooth="yes"/>
      <point x="324" y="1110" type="line" smooth="yes"/>
      <point x="324" y="1178"/>
      <point x="269" y="1232"/>
    </contour>
    <contour>
      <point x="112" y="1110" type="line"/>
      <point x="112" y="1160"/>
      <point x="153" y="1200"/>
      <point x="202" y="1200" type="curve" smooth="yes"/>
      <point x="251" y="1200"/>
      <point x="291" y="1161"/>
      <point x="292" y="1110" type="curve"/>
      <point x="112" y="771" type="line"/>
    </contour>
    <contour>
      <point x="202" y="616" type="curve" smooth="yes"/>
      <point x="154" y="616"/>
      <point x="114" y="655"/>
      <point x="112" y="703" type="curve"/>
      <point x="292" y="1042" type="line"/>
      <point x="292" y="706" type="line" smooth="yes"/>
      <point x="292" y="657"/>
      <point x="251" y="616"/>
    </contour>
  </outline>
</glyph>
